<svg width="400" height="382" viewBox="0 0 400 382" fill="none" xmlns="http://www.w3.org/2000/svg">    <g clip-path="url(#clip0_1668_221533)">        <path d="M26.4829 224.813V215.807C26.4829 211.367 28.047 207.431 31.1753 204L81.2021 147.162C83.9772 144.084 87.9128 142.52 93.0088 142.47H116.698C118.766 142.47 120.507 143.176 121.92 144.589C123.333 146.002 124.039 147.692 124.039 149.66V210.509H132.364C134.433 210.509 136.174 211.216 137.586 212.628C138.999 214.041 139.706 215.731 139.706 217.699V224.813C139.706 226.781 138.974 228.472 137.511 229.884C136.048 231.247 134.332 231.928 132.364 231.928H124.039V243.886C124.039 245.854 123.307 247.544 121.844 248.957C120.381 250.319 118.666 251 116.698 251H102.621C100.653 251 98.9626 250.344 97.5498 249.032C96.1875 247.67 95.5063 246.005 95.5063 244.037V231.928H33.8242C31.8564 231.928 30.141 231.247 28.6777 229.884C27.2145 228.472 26.4829 226.781 26.4829 224.813ZM56.9077 210.509H95.5063V166.688L56.9077 210.509ZM144.322 196.735C144.322 186.593 145.71 177.89 148.485 170.624C151.31 163.358 155.296 157.682 160.443 153.595C170.231 145.775 182.997 141.864 198.739 141.864H204.037C219.779 141.864 232.544 145.775 242.333 153.595C253.08 162.173 258.453 176.553 258.453 196.735C258.453 217.018 253.08 231.423 242.333 239.95C232.544 247.72 219.779 251.605 204.037 251.605H198.739C182.997 251.605 170.231 247.72 160.443 239.95C149.696 231.423 144.322 217.018 144.322 196.735ZM201.388 163.283C182.366 163.283 172.855 174.459 172.855 196.811C172.855 219.112 182.366 230.263 201.388 230.263C220.41 230.263 229.92 219.112 229.92 196.811C229.92 174.459 220.41 163.283 201.388 163.283ZM264.583 224.813V215.807C264.583 211.367 266.148 207.431 269.276 204L319.303 147.162C322.078 144.084 326.013 142.52 331.109 142.47H354.798C356.867 142.47 358.608 143.176 360.021 144.589C361.433 146.002 362.14 147.692 362.14 149.66V210.509H370.465C372.534 210.509 374.274 211.216 375.687 212.628C377.1 214.041 377.806 215.731 377.806 217.699V224.813C377.806 226.781 377.075 228.472 375.611 229.884C374.148 231.247 372.433 231.928 370.465 231.928H362.14V243.886C362.14 245.854 361.408 247.544 359.945 248.957C358.482 250.319 356.766 251 354.798 251H340.721C338.753 251 337.063 250.344 335.65 249.032C334.288 247.67 333.607 246.005 333.607 244.037V231.928H271.925C269.957 231.928 268.242 231.247 266.778 229.884C265.315 228.472 264.583 226.781 264.583 224.813ZM295.008 210.509H333.607V166.688L295.008 210.509Z" fill="#1877F2"/>        <path d="M276.698 96.4193C280.183 95.8527 283.365 94.1373 285.964 91.7488C296.856 81.7498 335.601 49.6368 347.101 87.273C349.236 94.822 345.104 146.259 388.729 139.364C391.935 138.871 395.03 137.837 397.886 136.303C409.078 130.239 429.512 115.16 433.375 100.605C438.042 83.0197 428.977 95.2557 428.977 95.2557C428.977 95.2557 397.301 137.605 371.324 126.562C368.434 125.333 365.586 122.781 363.741 120.238C360.542 115.832 359.094 108.427 358.759 101.452C358.308 92.0137 357.398 48.9181 313.22 61.3395C303.094 64.2879 289.054 69.7491 276.351 86.28C268.941 95.9238 272.47 97.1075 276.698 96.4193Z" fill="url(#paint0_linear_1668_221533)"/>        <path d="M278.322 79.2141L269.495 89.7902C266.449 93.4402 266.938 98.8694 270.588 101.916L271.989 103.086C275.639 106.132 281.068 105.643 284.115 101.993L292.944 91.4181C295.99 87.7681 295.501 82.3389 291.85 79.2907L290.45 78.1225C286.799 75.0742 281.37 75.5631 278.322 79.2141Z" fill="#0E84E5"/>        <path d="M216.391 130.512L187.281 165.388C185.755 167.213 186 169.928 187.826 171.45L188.194 171.758C190.018 173.281 192.732 173.037 194.258 171.212L223.368 136.336C224.893 134.509 224.648 131.794 222.822 130.272L222.454 129.964C220.63 128.441 217.915 128.685 216.391 130.512Z" fill="#BDD6F9"/>        <path d="M242.4 152.219L213.287 187.094C211.764 188.92 212.009 191.634 213.835 193.157L214.201 193.465C216.027 194.988 218.741 194.743 220.264 192.918L249.377 158.042C250.9 156.216 250.655 153.502 248.831 151.978L248.463 151.671C246.639 150.147 243.923 150.393 242.4 152.219Z" fill="#BDD6F9"/>        <path d="M250.155 86.3993L226.561 114.664C223.512 118.315 224.002 123.746 227.652 126.793L253.44 148.315C257.09 151.362 262.519 150.873 265.565 147.223L289.161 118.957C292.208 115.307 291.719 109.878 288.068 106.83L262.282 85.3058C258.632 82.2594 253.203 82.7483 250.155 86.3993Z" fill="#5895F9"/>        <path d="M227.359 108.856L203.764 137.124C200.717 140.774 201.206 146.203 204.857 149.251L235.621 174.929C239.271 177.976 244.7 177.487 247.746 173.837L271.343 145.571C274.389 141.921 273.9 136.491 270.249 133.443L239.485 107.765C235.834 104.717 230.405 105.206 227.359 108.856Z" fill="#699CFF"/>        <path d="M228.286 99.5682L228.1 99.7893C226.069 102.223 226.395 105.844 228.829 107.875L271.926 143.848C274.36 145.879 277.979 145.554 280.01 143.121L280.194 142.898C282.227 140.463 281.9 136.845 279.467 134.814L236.371 98.8398C233.938 96.8089 230.317 97.1349 228.286 99.5682Z" fill="#208AF2"/>        <path d="M-28.3207 299.536C-28.3207 299.536 21.775 247.907 35.6157 291.729C37.6714 298.74 34.2976 342.955 68.9967 343.074C76.4472 343.099 83.6999 340.814 90.1217 337.036C101.635 330.263 118.652 317.399 122.011 304.248C126.512 286.62 117.563 298.94 117.563 298.94C117.563 298.94 91.3965 333.073 67.1515 332.08C58.8732 331.741 51.8023 325.878 49.3889 317.95C48.2145 314 47.5483 309.915 47.4071 305.796C47.0659 296.353 45.5531 253.276 1.4937 266.112C-8.60547 269.155 -22.5925 274.748 -35.1411 291.398C-47.6887 308.05 -28.3207 299.536 -28.3207 299.536Z" fill="url(#paint1_linear_1668_221533)"/>        <path d="M121.59 284.993L112.863 295.651C109.85 299.33 110.39 304.755 114.069 307.768L115.481 308.923C119.16 311.937 124.585 311.397 127.597 307.716L136.324 297.06C139.337 293.381 138.797 287.956 135.118 284.943L133.707 283.788C130.027 280.774 124.602 281.314 121.59 284.993Z" fill="#0E84E5"/>        <path d="M129.769 255.688L116.835 271.484C113.822 275.163 114.362 280.587 118.041 283.601L138.391 300.264C142.07 303.278 147.495 302.738 150.508 299.059L163.442 283.264C166.455 279.585 165.915 274.161 162.236 271.147L141.886 254.483C138.207 251.469 132.782 252.009 129.769 255.688Z" fill="#5895F9"/>        <path d="M147.757 223.296L128.468 246.851C125.455 250.53 125.995 255.954 129.675 258.968L160.678 284.356C164.357 287.37 169.782 286.83 172.794 283.151L192.083 259.596C195.097 255.916 194.557 250.492 190.878 247.478L159.874 222.09C156.195 219.076 150.771 219.616 147.757 223.296Z" fill="#699CFF"/>        <path d="M149.074 213.54L148.89 213.763C146.881 216.216 147.242 219.833 149.695 221.841L193.126 257.41C195.579 259.418 199.196 259.058 201.204 256.605L201.387 256.381C203.395 253.929 203.036 250.313 200.583 248.303L157.15 212.737C154.698 210.729 151.082 211.088 149.074 213.54Z" fill="#BDD6F9"/>    </g>    <defs>        <linearGradient id="paint0_linear_1668_221533" x1="328.601" y1="50.0171" x2="387.501" y2="104.5" gradientUnits="userSpaceOnUse">            <stop stop-color="#BDD6F9"/>            <stop offset="1" stop-color="#BDD6F9" stop-opacity="0"/>        </linearGradient>        <linearGradient id="paint1_linear_1668_221533" x1="12" y1="275" x2="78.5" y2="323.5" gradientUnits="userSpaceOnUse">            <stop stop-color="#BDD6F9" stop-opacity="0"/>            <stop offset="1" stop-color="#BDD6F9"/>        </linearGradient>        <clipPath id="clip0_1668_221533">            <rect width="400" height="381" fill="white" transform="translate(0 0.5)"/>        </clipPath>    </defs></svg>