<svg width="80" height="80" viewBox="0 0 80 80" fill="none" xmlns="http://www.w3.org/2000/svg">    <path d="M63.8336 26.188C65.278 26.188 66.0003 26.7789 66.0003 27.9607C66.0003 28.3284 65.9215 28.788 65.7639 29.3395L64.8184 32.5305C64.5295 33.5022 64.175 34.185 63.7548 34.579C63.3346 34.9729 62.7305 35.1699 61.9427 35.1699C61.2861 35.1699 60.774 34.9992 60.4063 34.6578C60.0649 34.3163 59.7366 33.778 59.4214 33.0426L58.7517 31.4274C58.5416 30.9284 58.3184 30.587 58.082 30.4032C57.8456 30.2193 57.478 30.1274 56.979 30.1274H56.0729L51.0698 47.7367C50.991 48.0781 50.9516 48.3801 50.9516 48.6428C50.9516 48.9579 50.991 49.2205 51.0698 49.4306C51.1749 49.6407 51.3193 49.864 51.5032 50.1003C51.7395 50.468 51.8577 50.77 51.8577 51.0064C51.8577 51.0589 51.8314 51.1903 51.7789 51.4004C51.6476 51.7418 51.385 51.9913 50.991 52.1488C50.6234 52.3064 50.085 52.3852 49.3759 52.3852H40.1182C39.5667 52.3852 39.1333 52.2933 38.8182 52.1095C38.5293 51.9256 38.3849 51.663 38.3849 51.3216C38.3849 51.164 38.4242 51.0064 38.503 50.8488C38.6081 50.6125 38.7263 50.4418 38.8576 50.3367C39.0152 50.2054 39.2384 50.0478 39.5273 49.864C39.9212 49.6276 40.2495 49.365 40.5121 49.0761C40.7748 48.7872 40.998 48.3407 41.1818 47.7367L46.1455 30.1274H45.2395C44.6617 30.1274 44.1889 30.2193 43.8213 30.4032C43.4536 30.587 43.0596 30.9284 42.6394 31.4274L41.3394 33.0426C40.7354 33.7517 40.1445 34.2901 39.5667 34.6578C39.0152 34.9992 38.4111 35.1699 37.7545 35.1699C37.1505 35.1699 36.6778 35.0123 36.3363 34.6972C35.9949 34.382 35.8242 33.9487 35.8242 33.3971C35.8242 33.1345 35.8636 32.8456 35.9424 32.5305L36.9667 28.9456C37.1768 28.2102 37.4131 27.6587 37.6758 27.291C37.9384 26.8971 38.3061 26.6213 38.7788 26.4637C39.2778 26.2799 39.9738 26.188 40.8667 26.188H63.8336Z" fill="url(#paint0_linear_1660_38966)"/>    <path fill-rule="evenodd" clip-rule="evenodd" d="M36.7239 26L28.9873 26C28.3045 26 27.8055 26.0657 27.4904 26.197C27.1752 26.3283 26.9782 26.5778 26.8994 26.9455C26.8207 27.2344 26.86 27.4839 27.0176 27.694C27.2015 27.9041 27.4904 28.1536 27.8843 28.4424C28.357 28.7576 28.6985 29.0465 28.9086 29.3091C29.1449 29.5718 29.2631 29.9132 29.2631 30.3334C29.2631 30.596 29.2368 30.8061 29.1843 30.9637L24.8903 45.7759C24.6014 46.7739 24.2469 47.5487 23.8267 48.1002C23.4065 48.6517 22.9206 48.9275 22.3691 48.9275C21.8176 48.9275 21.3317 48.7962 20.9115 48.5335C21.7782 48.0083 22.3691 47.1941 22.6843 46.0911C22.8418 45.5396 22.9206 44.9881 22.9206 44.4365C22.9206 43.3335 22.6055 42.4274 21.9752 41.7183C21.3448 41.0092 20.4388 40.6547 19.2569 40.6547C18.2327 40.6547 17.3004 40.9567 16.46 41.5608C15.6458 42.1648 15.068 43.0577 14.7266 44.2396C14.569 44.7911 14.4902 45.3557 14.4902 45.9335C14.4902 47.1154 14.8448 48.2053 15.5539 49.2033C16.263 50.2012 17.3135 51.0023 18.7054 51.6063C20.1236 52.1841 21.8438 52.473 23.8661 52.473C26.8863 52.473 29.3419 51.8033 31.2328 50.4639C33.1237 49.0982 34.4632 47.0234 35.251 44.2396L37.3526 36.8199C36.1033 36.6175 35.0775 36.0041 34.6815 35.6709C34.2026 35.268 33.9632 34.714 33.9632 34.009C33.9632 33.6732 34.0184 33.3039 34.1289 32.901L35.5657 28.318C35.8604 27.3779 36.192 26.6728 36.5604 26.2027C36.612 26.1322 36.6665 26.0646 36.7239 26Z" fill="url(#paint1_linear_1660_38966)"/>    <path fill-rule="evenodd" clip-rule="evenodd" d="M56.0483 2.95097C55.6321 2.75423 55.1348 2.91718 54.9157 3.32203C54.6966 3.72688 54.8323 4.23236 55.2247 4.4731C65.8319 10.9816 72.8967 22.5573 72.8967 35.7184C72.8967 55.9938 56.1316 72.5139 35.4953 72.5139L35.4945 72.5139C26.1825 72.5224 17.2069 69.0993 10.3346 62.9222C9.99232 62.6145 9.46922 62.6281 9.14333 62.9531C8.81744 63.2781 8.80246 63.8011 9.10921 64.1443C12.8342 68.3111 17.4179 71.6477 22.5544 73.9325C27.6909 76.2173 33.2623 77.3982 38.898 77.3968C60.8051 77.3968 78.6512 59.8474 78.6512 38.2577C78.6512 22.7104 69.3992 9.26245 56.0483 2.95097Z" fill="url(#paint2_radial_1660_38966)"/>    <path fill-rule="evenodd" clip-rule="evenodd" d="M54.9136 3.32203C55.1327 2.91718 55.63 2.75423 56.0462 2.95097C69.3971 9.26245 78.6491 22.7104 78.6491 38.2577C78.6491 59.8474 60.803 77.3968 38.8959 77.3968C33.2602 77.3982 27.6888 76.2173 22.5523 73.9325C22.5495 73.9313 22.5467 73.93 22.5439 73.9288C35.4304 78.3394 50.0772 76.014 60.7434 66.5238C72.2163 56.3157 75.99 40.5739 71.7729 26.4556C71.7388 26.3416 71.6834 26.2395 71.6122 26.1524C69.1204 17.0597 63.1644 9.34613 55.2226 4.4731C54.8302 4.23236 54.6946 3.72688 54.9136 3.32203Z" fill="url(#paint3_linear_1660_38966)"/>    <path fill-rule="evenodd" clip-rule="evenodd" d="M21.1319 66.4508C21.4886 66.6212 21.9149 66.4801 22.1027 66.1293C22.2904 65.7786 22.1741 65.3408 21.8378 65.1322C12.7459 59.494 6.88627 49.506 6.88627 38.1049C6.88627 20.5407 21.2571 6.98284 38.9453 6.98284C46.927 6.97546 53.9507 9.58276 60.4503 14.9991C60.7437 15.2656 61.2543 15.064 61.5337 14.7825C61.813 14.5009 61.8259 14.0478 61.5629 13.7506C58.3701 10.1409 54.237 7.01234 49.8343 5.03303C45.4316 3.05373 40.8586 1.99859 36.028 1.99981C17.2505 1.99981 1.08725 16.299 1.08725 36.2311C1.08725 49.6994 9.53674 61.363 21.1319 66.4508Z" fill="url(#paint4_linear_1660_38966)"/>    <path fill-rule="evenodd" clip-rule="evenodd" d="M22.1026 66.1303C21.9148 66.481 21.4885 66.6221 21.1318 66.4517C9.53665 61.3639 1.08716 49.7003 1.08716 36.2321C1.08716 16.2999 17.2504 2.00073 36.0279 2.00073C40.8011 1.99953 45.3228 3.02973 49.6772 4.96379C39.8415 2.0515 28.8243 3.55015 19.591 10.5521C9.33108 18.3328 5.05232 31.2706 7.27627 43.153C8.72534 52.418 14.1157 60.3445 21.8377 65.1331C22.174 65.3417 22.2903 65.7796 22.1026 66.1303Z" fill="url(#paint5_linear_1660_38966)"/>    <path fill-rule="evenodd" clip-rule="evenodd" d="M28.9873 26L36.7239 26C36.6665 26.0646 36.612 26.1322 36.5604 26.2027C36.192 26.6728 35.8604 27.3779 35.5657 28.318L34.1289 32.901C34.0184 33.3039 33.9632 33.6732 33.9632 34.009C33.9632 34.714 34.2026 35.268 34.6815 35.6709C35.0775 36.0041 36.1033 36.6175 37.3526 36.8199L35.251 44.2396C34.4632 47.0234 33.1237 49.0982 31.2328 50.4639C29.3419 51.8033 26.8863 52.473 23.8661 52.473C21.8438 52.473 20.1236 52.1841 18.7054 51.6063C17.3135 51.0023 16.263 50.2012 15.5539 49.2033C14.8448 48.2053 14.4902 47.1154 14.4902 45.9335C14.4902 45.3557 14.569 44.7911 14.7266 44.2396C15.068 43.0577 15.6458 42.1648 16.46 41.5608C17.3004 40.9567 18.2327 40.6547 19.2569 40.6547C20.4388 40.6547 21.3448 41.0092 21.9752 41.7183C22.6055 42.4274 22.9206 43.3335 22.9206 44.4365C22.9206 44.9881 22.8418 45.5396 22.6843 46.0911C22.3691 47.1941 21.7782 48.0083 20.9115 48.5335C21.3317 48.7962 21.8176 48.9275 22.3691 48.9275C22.9206 48.9275 23.4065 48.6517 23.8267 48.1002C24.2469 47.5487 24.6014 46.7739 24.8903 45.7759L29.1843 30.9637C29.2368 30.8061 29.2631 30.596 29.2631 30.3334C29.2631 29.9132 29.1449 29.5718 28.9086 29.3091C28.6985 29.0465 28.357 28.7576 27.8843 28.4424C27.4904 28.1536 27.2015 27.9041 27.0176 27.694C26.86 27.4839 26.8207 27.2344 26.8994 26.9455C26.9782 26.5778 27.1752 26.3283 27.4904 26.197C27.8055 26.0657 28.3045 26 28.9873 26ZM66.0003 27.9607C66.0003 26.7789 65.278 26.188 63.8336 26.188L40.8667 26.188C39.9738 26.188 39.2778 26.2799 38.7788 26.4637C38.3061 26.6213 37.9384 26.8971 37.6758 27.291C37.4131 27.6587 37.1768 28.2102 36.9667 28.9456L35.9424 32.5305C35.8636 32.8456 35.8242 33.1345 35.8242 33.3971C35.8242 33.9487 35.9949 34.382 36.3363 34.6972C36.6778 35.0123 37.1505 35.1699 37.7545 35.1699C38.4111 35.1699 39.0152 34.9992 39.5667 34.6578C40.1445 34.2901 40.7354 33.7517 41.3394 33.0426L42.6394 31.4274C43.0596 30.9284 43.4536 30.587 43.8213 30.4032C44.1889 30.2193 44.6617 30.1274 45.2395 30.1274L46.1455 30.1274L41.1818 47.7367C40.998 48.3407 40.7748 48.7872 40.5121 49.0761C40.2495 49.365 39.9212 49.6276 39.5273 49.864C39.2384 50.0478 39.0152 50.2054 38.8576 50.3367C38.7263 50.4418 38.6081 50.6125 38.503 50.8488C38.4242 51.0064 38.3848 51.164 38.3848 51.3216C38.3848 51.663 38.5293 51.9256 38.8182 52.1095C39.1333 52.2933 39.5667 52.3852 40.1182 52.3852L49.3759 52.3852C50.085 52.3852 50.6234 52.3064 50.991 52.1488C51.385 51.9913 51.6476 51.7418 51.7789 51.4004C51.8314 51.1903 51.8577 51.0589 51.8577 51.0064C51.8577 50.77 51.7395 50.468 51.5032 50.1003C51.3193 49.864 51.1749 49.6407 51.0698 49.4306C50.991 49.2205 50.9516 48.9579 50.9516 48.6428C50.9516 48.3801 50.991 48.0781 51.0698 47.7367L56.0729 30.1274L56.979 30.1274C57.478 30.1274 57.8456 30.2193 58.082 30.4032C58.3184 30.587 58.5416 30.9284 58.7517 31.4274L59.4214 33.0426C59.7366 33.778 60.0649 34.3163 60.4063 34.6578C60.774 34.9992 61.2861 35.1699 61.9427 35.1699C62.7305 35.1699 63.3346 34.9729 63.7548 34.579C64.175 34.185 64.5295 33.5022 64.8184 32.5305L65.7639 29.3395C65.9215 28.788 66.0003 28.3284 66.0003 27.9607Z" fill="url(#paint6_linear_1660_38966)"/>    <defs>        <linearGradient id="paint0_linear_1660_38966" x1="35.8242" y1="26.188" x2="35.8242" y2="52.3852" gradientUnits="userSpaceOnUse">            <stop stop-color="#5BE49B"/>            <stop offset="1" stop-color="#00A76F"/>        </linearGradient>        <linearGradient id="paint1_linear_1660_38966" x1="14.4902" y1="26" x2="14.4902" y2="52.473" gradientUnits="userSpaceOnUse">            <stop stop-color="#5BE49B"/>            <stop offset="1" stop-color="#00A76F"/>        </linearGradient>        <radialGradient id="paint2_radial_1660_38966" cx="0" cy="0" r="1" gradientUnits="userSpaceOnUse" gradientTransform="translate(58.2853 50.0982) rotate(-110.529) scale(54.3663 53.997)">            <stop stop-color="#004B50"/>            <stop offset="1" stop-color="#00A76F"/>        </radialGradient>        <linearGradient id="paint3_linear_1660_38966" x1="82.3324" y1="2.86768" x2="82.3324" y2="77.3966" gradientUnits="userSpaceOnUse">            <stop stop-color="#5BE49B"/>            <stop offset="1" stop-color="#00A76F"/>        </linearGradient>        <linearGradient id="paint4_linear_1660_38966" x1="-1.29602" y1="26.9159" x2="70.0624" y2="35.8244" gradientUnits="userSpaceOnUse">            <stop stop-color="#004B50"/>            <stop offset="1" stop-color="#00A76F"/>        </linearGradient>        <linearGradient id="paint5_linear_1660_38966" x1="1.08716" y1="2.00073" x2="1.08716" y2="75.663" gradientUnits="userSpaceOnUse">            <stop stop-color="#5BE49B"/>            <stop offset="1" stop-color="#00A76F"/>        </linearGradient>        <linearGradient id="paint6_linear_1660_38966" x1="14.4902" y1="26" x2="14.4902" y2="52.473" gradientUnits="userSpaceOnUse">            <stop stop-color="#5BE49B"/>            <stop offset="1" stop-color="#00A76F"/>        </linearGradient>    </defs></svg>