<svg width="24" height="24" viewBox="0 0 24 24" fill="none" xmlns="http://www.w3.org/2000/svg">  <path d="M12.0169 1.5H11.9714C6.18495 1.5 1.49414 6.19081 1.49414 11.9772V12.0228C1.49414 17.8092 6.18495 22.5 11.9714 22.5H12.0169C17.8033 22.5 22.4941 17.8092 22.4941 12.0228V11.9772C22.4941 6.19081 17.8033 1.5 12.0169 1.5Z" stroke="white"/>  <path d="M16.9986 7.40873C16.0779 6.98621 15.0913 6.6751 14.0592 6.49712C14.0403 6.49362 14.0213 6.50202 14.0122 6.51954C13.8854 6.74517 13.7446 7.04016 13.6465 7.27139C12.5366 7.10533 11.4323 7.10533 10.3448 7.27139C10.246 7.03455 10.1002 6.74517 9.97272 6.51954C9.96291 6.50273 9.94399 6.49432 9.92578 6.49712C8.89435 6.6751 7.90707 6.98621 6.98635 7.40873C6.97864 7.41223 6.97164 7.41784 6.96673 7.42554C5.09447 10.2227 4.58154 12.9512 4.83309 15.6461C4.8345 15.6594 4.8415 15.672 4.85201 15.6798C6.08734 16.5872 7.28415 17.1379 8.45852 17.503C8.47744 17.5086 8.49705 17.5016 8.50897 17.4862C8.78644 17.1071 9.03449 16.707 9.2468 16.2859C9.25942 16.2613 9.2468 16.2319 9.22157 16.2221C8.82848 16.0728 8.455 15.8914 8.09484 15.6854C8.06611 15.6685 8.06402 15.6279 8.08995 15.6083C8.16563 15.5515 8.2413 15.4927 8.31347 15.4331C8.32678 15.4219 8.345 15.4198 8.36041 15.4268C10.7239 16.5059 13.2828 16.5059 15.6182 15.4268C15.6337 15.4191 15.6519 15.4219 15.6652 15.4324C15.7374 15.492 15.813 15.5515 15.8894 15.6083C15.9153 15.6279 15.9139 15.6685 15.8852 15.6854C15.5258 15.8956 15.1516 16.0735 14.7578 16.2221C14.7319 16.2319 14.7206 16.2613 14.7332 16.2866C14.9505 16.7063 15.1978 17.1064 15.4704 17.4862C15.4816 17.5023 15.5019 17.5093 15.5208 17.5037C16.7008 17.1386 17.8976 16.5879 19.1329 15.6805C19.1434 15.6728 19.1504 15.6601 19.1519 15.6475C19.4532 12.5322 18.6474 9.82613 17.0168 7.42694C17.0126 7.41924 17.0063 7.41293 16.9979 7.40943L16.9986 7.40873ZM9.59854 14.0051C8.88663 14.0051 8.30086 13.352 8.30086 12.5497C8.30086 11.7474 8.87612 11.0944 9.59854 11.0944C10.321 11.0944 10.9081 11.7538 10.8962 12.5497C10.8962 13.352 10.321 14.0051 9.59854 14.0051ZM14.3976 14.0051C13.6857 14.0051 13.0999 13.352 13.0999 12.5497C13.0999 11.7474 13.6752 11.0944 14.3976 11.0944C15.12 11.0944 15.7072 11.7538 15.6953 12.5497C15.6953 13.352 15.1263 14.0051 14.3976 14.0051Z" fill="white"/></svg>