<svg width="24" height="24" viewBox="0 0 24 24" fill="none" xmlns="http://www.w3.org/2000/svg">  <path d="M13.458 22.3993L13.4583 22.3992C18.5642 21.6877 22.4941 17.3038 22.4941 12.0004C22.4941 6.20143 17.7935 1.5 11.9967 1.5C6.19983 1.5 1.5 6.20147 1.5 12.0004C1.5 17.2266 5.31748 21.5611 10.3166 22.3661C10.8641 22.4544 11.4259 22.5 11.9974 22.5C12.4928 22.5 12.9809 22.4654 13.458 22.3993Z" stroke="white"/>  <path d="M13.389 10.0294V12.2078H16.0831L15.6565 15.1424H13.389V21.9034C12.9344 21.9664 12.4692 21.9994 11.9971 21.9994C11.4521 21.9994 10.9169 21.9559 10.3958 21.8719V15.1424H7.91113V12.2078H10.3958V9.54239C10.3958 7.88874 11.7358 6.54761 13.3897 6.54761V6.54901C13.3946 6.54901 13.3988 6.54761 13.4037 6.54761H16.0838V9.08553H14.3325C13.8121 9.08553 13.3897 9.50805 13.3897 10.0287L13.389 10.0294Z" fill="white"/></svg>