<svg width="24" height="24" viewBox="0 0 24 24" fill="none" xmlns="http://www.w3.org/2000/svg">
<path d="M9.77792 12C9.77792 13.2271 10.7725 14.2221 12 14.2221C13.2275 14.2221 14.2221 13.2275 14.2221 12C14.2221 10.7729 13.2275 9.77792 12 9.77792C10.7729 9.77792 9.77792 10.7725 9.77792 12Z" fill="#E02D69"/>
<path fill-rule="evenodd" clip-rule="evenodd" d="M12 6.53458C13.78 6.53458 13.9908 6.54125 14.6938 6.57333C15.4525 6.60792 16.1567 6.76 16.6983 7.30167C17.24 7.84333 17.3921 8.5475 17.4267 9.30625C17.4587 10.0092 17.4654 10.22 17.4654 12C17.4654 13.78 17.4587 13.9908 17.4267 14.6938C17.3921 15.4525 17.24 16.1567 16.6983 16.6983C16.1567 17.24 15.4525 17.3921 14.6938 17.4267C13.9908 17.4587 13.78 17.4654 12 17.4654C10.22 17.4654 10.0092 17.4587 9.30625 17.4267C8.5475 17.3921 7.84333 17.24 7.30167 16.6983C6.76 16.1567 6.60792 15.4525 6.57333 14.6938C6.54125 13.9908 6.53458 13.78 6.53458 12C6.53458 10.22 6.54125 10.0092 6.57333 9.30625C6.60792 8.5475 6.76 7.84333 7.30167 7.30167C7.84333 6.76 8.5475 6.60792 9.30625 6.57333C10.0092 6.54125 10.22 6.53458 12 6.53458ZM8.57667 12C8.57667 10.1096 10.1092 8.57667 12 8.57667C13.8908 8.57667 15.4233 10.1096 15.4233 12C15.4233 13.8904 13.8904 15.4233 12 15.4233C10.1096 15.4233 8.57667 13.8904 8.57667 12ZM15.5588 9.24125C16.0006 9.24125 16.3588 8.88308 16.3588 8.44125C16.3588 7.99942 16.0006 7.64125 15.5588 7.64125C15.1169 7.64125 14.7587 7.99942 14.7587 8.44125C14.7587 8.88308 15.1169 9.24125 15.5588 9.24125Z" fill="#E02D69"/>
<path fill-rule="evenodd" clip-rule="evenodd" d="M7.87708 2.06C8.94375 2.01167 9.28417 2 12 2C14.7158 2 15.0562 2.01167 16.1229 2.06C17.7487 2.13417 19.1758 2.5325 20.3217 3.67833C21.4679 4.82458 21.8658 6.25208 21.94 7.87708C21.9883 8.94375 22 9.28417 22 12C22 14.7158 21.9883 15.0562 21.94 16.1229C21.8658 17.7487 21.4675 19.1758 20.3217 20.3217C19.1754 21.4679 17.7475 21.8658 16.1229 21.94C15.0562 21.9883 14.7158 22 12 22C9.28417 22 8.94375 21.9883 7.87708 21.94C6.25125 21.8658 4.82417 21.4675 3.67833 20.3217C2.53208 19.1754 2.13417 17.7479 2.06 16.1229C2.01167 15.0562 2 14.7158 2 12C2 9.28417 2.01167 8.94375 2.06 7.87708C2.13417 6.25125 2.5325 4.82417 3.67833 3.67833C4.82458 2.53208 6.25208 2.13417 7.87708 2.06ZM12 5.33333C10.1896 5.33333 9.9625 5.34083 9.25125 5.37333C8.16792 5.42292 7.21625 5.68833 6.45208 6.45208C5.68833 7.21583 5.42292 8.1675 5.37333 9.25125C5.34083 9.9625 5.33333 10.1896 5.33333 12C5.33333 13.8104 5.34083 14.0375 5.37333 14.7488C5.42292 15.8321 5.68833 16.7838 6.45208 17.5479C7.21583 18.3117 8.1675 18.5771 9.25125 18.6267C9.9625 18.6592 10.1896 18.6667 12 18.6667C13.8104 18.6667 14.0375 18.6592 14.7488 18.6267C15.8321 18.5771 16.7838 18.3117 17.5479 17.5479C18.3117 16.7842 18.5771 15.8325 18.6267 14.7488C18.6592 14.0375 18.6667 13.8104 18.6667 12C18.6667 10.1896 18.6592 9.9625 18.6267 9.25125C18.5771 8.16792 18.3117 7.21625 17.5479 6.45208C16.7842 5.68833 15.8325 5.42292 14.7488 5.37333C14.0375 5.34083 13.8104 5.33333 12 5.33333Z" fill="#E02D69"/>
</svg>
