<svg width="24" height="24" viewBox="0 0 24 24" fill="none" xmlns="http://www.w3.org/2000/svg">
<path d="M8.08031 20C11.0677 20.1 13.9686 18.9876 16.1232 16.9159C18.2778 14.8441 19.5031 11.9891 19.5203 9.00005C20.198 8.16146 20.7011 7.19588 21.0003 6.16005C21.0459 5.99287 20.9892 5.81449 20.8553 5.70441C20.7215 5.59433 20.5355 5.57305 20.3803 5.65005C19.6534 5.99998 18.7842 5.84707 18.2203 5.27005C17.5111 4.49338 16.5175 4.03701 15.4663 4.00498C14.415 3.97295 13.3955 4.36799 12.6403 5.10005C11.5993 6.10824 11.1628 7.58832 11.4903 9.00005C8.14031 9.20005 5.84031 7.61005 4.00031 5.43005C3.88736 5.30213 3.70946 5.25312 3.54693 5.30512C3.38441 5.35713 3.26802 5.50032 3.25031 5.67005C2.53242 9.65221 4.36717 13.6607 7.85031 15.72C6.70994 17.0279 5.10852 17.8447 3.38031 18C3.19049 18.0315 3.04168 18.1802 3.01005 18.37C2.97842 18.5598 3.07096 18.7487 3.24031 18.84C4.74383 19.5914 6.39954 19.9882 8.08031 20Z" fill="#00AAEC"/>
</svg>
