<svg width="35" height="34" viewBox="0 0 35 34" fill="none" xmlns="http://www.w3.org/2000/svg">
<path d="M9.03568 16.525C9.0741 16.5053 9.11306 16.4871 9.15149 16.4695C9.81113 16.1637 10.4793 15.8776 11.148 15.5916C11.1843 15.5916 11.2446 15.5499 11.2788 15.5355C11.3306 15.5136 11.3818 15.4912 11.4336 15.4694C11.5328 15.4272 11.6316 15.3845 11.7308 15.3423C11.9288 15.2575 12.1268 15.1726 12.3254 15.0883C12.7214 14.9186 13.1179 14.7494 13.5139 14.5797C14.3065 14.2408 15.099 13.9019 15.8915 13.5625C16.6841 13.2236 17.4766 12.8847 18.2691 12.5452C19.0617 12.2063 19.8542 11.8674 20.6468 11.528C21.4393 11.1891 22.2318 10.8502 23.0244 10.5108C23.201 10.4355 23.3915 10.3224 23.5799 10.2888C23.7385 10.261 23.8932 10.2055 24.0523 10.1756C24.3554 10.118 24.689 10.0945 24.9788 10.2199C25.0791 10.2632 25.1709 10.3251 25.2488 10.4019C25.6165 10.7664 25.5648 11.3636 25.4874 11.8754C24.9451 15.4437 24.4029 19.0115 23.8607 22.5798C23.7865 23.0692 23.6856 23.6061 23.2992 23.9156C22.9726 24.1771 22.5067 24.207 22.1032 24.0955C21.6997 23.9839 21.3432 23.7491 20.9942 23.518C19.5447 22.5584 18.0957 21.5988 16.6462 20.6393C16.3019 20.4114 15.9182 20.1136 15.9219 19.7005C15.9241 19.4513 16.073 19.2298 16.2246 19.0323C17.4835 17.3901 19.3013 16.2608 20.6526 14.6939C20.8432 14.4735 20.9937 14.0737 20.7316 13.9467C20.5763 13.8709 20.397 13.9734 20.255 14.0721C18.4687 15.3135 16.6819 16.5549 14.8957 17.7957C14.3129 18.2008 13.7018 18.6171 12.9989 18.7169C12.3707 18.806 11.7378 18.631 11.1294 18.4522C10.6197 18.3022 10.1105 18.1485 9.60353 17.9905C9.33401 17.9067 9.05596 17.8165 8.84728 17.6265C8.63861 17.4366 8.51959 17.1174 8.64501 16.865C8.72346 16.7065 8.87663 16.6061 9.03728 16.5245L9.03568 16.525Z" fill="#00A76F"/>
</svg>
