<svg width="24" height="24" viewBox="0 0 24 24" fill="none" xmlns="http://www.w3.org/2000/svg">  <path d="M12.0228 1.5H11.9772C6.19081 1.5 1.5 6.19081 1.5 11.9772V12.0228C1.5 17.8092 6.19081 22.5 11.9772 22.5H12.0228C17.8092 22.5 22.5 17.8092 22.5 12.0228V11.9772C22.5 6.19081 17.8092 1.5 12.0228 1.5Z" stroke="white"/>  <path d="M5.78744 11.659C5.81547 11.645 5.84351 11.6317 5.87084 11.6191C6.34591 11.3991 6.82729 11.1931 7.30797 10.9871C7.33389 10.9871 7.37733 10.9569 7.40185 10.9471C7.43899 10.931 7.47613 10.9156 7.51327 10.8995L7.72698 10.8077C7.86993 10.7467 8.01216 10.6858 8.1551 10.6248C8.44028 10.5029 8.72547 10.381 9.01065 10.2583C9.58102 10.0145 10.1521 9.76995 10.7225 9.52611C11.2928 9.28227 11.8639 9.03773 12.4343 8.79388C13.0046 8.55004 13.5757 8.3055 14.1461 8.06165C14.7164 7.81781 15.2875 7.57327 15.8579 7.32943C15.9847 7.27477 16.122 7.19349 16.258 7.16967C16.3722 7.14935 16.4836 7.11011 16.5985 7.08839C16.8164 7.04704 17.0568 7.03023 17.2656 7.12062C17.3377 7.15215 17.4043 7.19629 17.4597 7.25165C17.7245 7.51371 17.6874 7.94394 17.6313 8.3125C17.241 10.8813 16.8508 13.4507 16.4598 16.0195C16.4065 16.3719 16.3336 16.7587 16.0555 16.9815C15.82 17.17 15.4851 17.191 15.1943 17.1112C14.9035 17.0306 14.6471 16.8617 14.3955 16.6956C13.3522 16.0048 12.3081 15.3139 11.2648 14.623C11.0168 14.459 10.7407 14.2446 10.7435 13.9468C10.7449 13.7674 10.8521 13.6077 10.9614 13.4654C11.8681 12.2827 13.1763 11.4698 14.1496 10.3417C14.2869 10.1827 14.3948 9.89538 14.2063 9.80359C14.0942 9.74893 13.9653 9.82321 13.863 9.89398C12.5765 10.7874 11.2907 11.6815 10.0043 12.5748C9.58453 12.8663 9.1445 13.1662 8.63859 13.2377C8.18594 13.3022 7.73049 13.176 7.29256 13.0471C6.92539 12.9392 6.55891 12.8285 6.19385 12.7143C5.99976 12.654 5.79936 12.5889 5.64941 12.4522C5.49946 12.3156 5.41328 12.0858 5.50367 11.9036C5.56043 11.7894 5.67044 11.7172 5.78606 11.6583L5.78744 11.659Z" fill="white"/></svg>