<svg width="24" height="24" viewBox="0 0 24 24" fill="none" xmlns="http://www.w3.org/2000/svg">  <path d="M13.4544 22.3993L13.4547 22.3992C18.4003 21.7102 22.2431 17.5773 22.481 12.5004H22.4941V12.0004C22.4941 6.20133 17.793 1.5 11.9941 1.5C6.19528 1.5 1.49414 6.20133 1.49414 12.0004C1.49414 17.2267 5.31265 21.5612 10.3122 22.3661C10.8599 22.4544 11.4218 22.5 11.9934 22.5C12.4889 22.5 12.9771 22.4654 13.4544 22.3993Z" stroke="white"/>  <path d="M6.04924 6.41028L10.6611 12.5764L6.02051 17.5899H7.06521L11.1284 13.2007L14.4111 17.5899H17.9656L13.0945 11.0769L17.4141 6.41028H16.3694L12.6278 10.4526L9.60445 6.41028H6.04993H6.04924ZM7.58511 7.17964H9.21768L16.4283 16.8205H14.7957L7.58511 7.17964Z" fill="white"/></svg>