<svg width="24" height="24" viewBox="0 0 24 24" fill="none" xmlns="http://www.w3.org/2000/svg">  <path d="M22.5 12C22.5 6.20101 17.799 1.5 12 1.5C6.20102 1.5 1.5 6.20101 1.5 12C1.5 17.799 6.20102 22.5 12 22.5C17.799 22.5 22.5 17.799 22.5 12Z" stroke="white"/>  <path fill-rule="evenodd" clip-rule="evenodd" d="M15.3498 16.4662C15.6421 16.4669 15.9471 16.4613 16.245 16.429L16.2457 16.4283C16.8318 16.3643 17.3904 16.1971 17.7671 15.7628C18.1472 15.325 18.2442 14.7151 18.3025 14.1382C18.4431 12.7391 18.441 11.3253 18.2969 9.92627C18.2189 9.16666 18.0496 8.32694 17.4263 7.88565C16.9435 7.54344 16.3083 7.53149 15.7166 7.53149C15.0905 7.5322 14.4642 7.53272 13.838 7.53325C13.2117 7.53378 12.5854 7.53431 11.9593 7.53501C11.3571 7.53571 10.7549 7.53624 10.1527 7.53676C9.5505 7.53729 8.94829 7.53782 8.34608 7.53852C8.27877 7.53862 8.2117 7.53801 8.1449 7.5374C7.71247 7.53346 7.29136 7.52963 6.88659 7.71771C6.48465 7.90462 6.17055 8.26019 5.98223 8.6558C5.72012 9.20671 5.66461 9.83 5.63299 10.4385C5.57537 11.5467 5.58099 12.6576 5.65126 13.7651C5.70186 14.5732 5.83185 15.4663 6.45654 15.9814C7.01097 16.4374 7.79236 16.4606 8.50981 16.4606C10.7893 16.462 13.0696 16.4641 15.3498 16.4662ZM10.6411 10.038L14.0393 11.9999L10.6411 13.9619V10.038Z" fill="white"/></svg>