<svg width="96" height="47" viewBox="0 0 96 47" fill="none" xmlns="http://www.w3.org/2000/svg">
    <mask id="mask0_3134_144925" style="mask-type:alpha" maskUnits="userSpaceOnUse" x="0" y="0" width="96" height="47">
        <path d="M96 34.1398H92.8C89.6 34.1398 83.2 34.1398 76.8 29.112C70.4 24.1596 64 13.9911 57.6 11.0347C51.2 7.96532 44.8 12.108 38.4 10.0367C32 7.96532 25.6 0.0564916 19.2 0C12.8 0.0564916 6.4 7.96532 3.2 12.0515L0 16.0624V46.1913H3.2C6.4 46.1913 12.8 46.1913 19.2 46.1913C25.6 46.1913 32 46.1913 38.4 46.1913C44.8 46.1913 51.2 46.1913 57.6 46.1913C64 46.1913 70.4 46.1913 76.8 46.1913C83.2 46.1913 89.6 46.1913 92.8 46.1913H96" fill="url(#paint0_linear_3134_144925)"/>
    </mask>
    <g mask="url(#mask0_3134_144925)">
        <path opacity="0.08" d="M96 34.1398H92.8C89.6 34.1398 83.2 34.1398 76.8 29.112C70.4 24.1596 64 13.9911 57.6 11.0347C51.2 7.96532 44.8 12.108 38.4 10.0367C32 7.96532 25.6 0.0564916 19.2 0C12.8 0.0564916 6.4 7.96532 3.2 12.0515L0 16.0624V46.1913H3.2C6.4 46.1913 12.8 46.1913 19.2 46.1913C25.6 46.1913 32 46.1913 38.4 46.1913C44.8 46.1913 51.2 46.1913 57.6 46.1913C64 46.1913 70.4 46.1913 76.8 46.1913C83.2 46.1913 89.6 46.1913 92.8 46.1913H96" fill="#FF5630"/>
        <path d="M96 34.3708H92.8C89.6 34.3708 83.2 34.3708 76.8 29.3431C70.4 24.3906 64 14.2221 57.6 11.2657C51.2 8.19636 44.8 12.3391 38.4 10.2677C32 8.19636 25.6 0.28754 19.2 0.231049C12.8 0.28754 6.4 8.19636 3.2 12.2826L0 16.2935" stroke="#FF5630" stroke-width="4"/>
    </g>
    <defs>
        <linearGradient id="paint0_linear_3134_144925" x1="96" y1="0" x2="96" y2="46.1913" gradientUnits="userSpaceOnUse">
            <stop/>
            <stop offset="1" stop-opacity="0.16"/>
        </linearGradient>
    </defs>
</svg>
