<svg width="96" height="47" viewBox="0 0 96 47" fill="none" xmlns="http://www.w3.org/2000/svg">
    <mask id="mask0_3134_144911" style="mask-type:alpha" maskUnits="userSpaceOnUse" x="0" y="0" width="96" height="47">
        <path d="M0 34.1398H3.2C6.4 34.1398 12.8 34.1398 19.2 29.112C25.6 24.1596 32 13.9911 38.4 11.0347C44.8 7.96532 51.2 12.108 57.6 10.0367C64 7.96532 70.4 0.0564916 76.8 0C83.2 0.0564916 89.6 7.96532 92.8 12.0515L96 16.0624V46.1913H92.8C89.6 46.1913 83.2 46.1913 76.8 46.1913C70.4 46.1913 64 46.1913 57.6 46.1913C51.2 46.1913 44.8 46.1913 38.4 46.1913C32 46.1913 25.6 46.1913 19.2 46.1913C12.8 46.1913 6.4 46.1913 3.2 46.1913H0" fill="url(#paint0_linear_3134_144911)"/>
    </mask>
    <g mask="url(#mask0_3134_144911)">
        <path opacity="0.08" d="M0 34.1398H3.2C6.4 34.1398 12.8 34.1398 19.2 29.112C25.6 24.1596 32 13.9911 38.4 11.0347C44.8 7.96532 51.2 12.108 57.6 10.0367C64 7.96532 70.4 0.0564916 76.8 0C83.2 0.0564916 89.6 7.96532 92.8 12.0515L96 16.0624V46.1913H92.8C89.6 46.1913 83.2 46.1913 76.8 46.1913C70.4 46.1913 64 46.1913 57.6 46.1913C51.2 46.1913 44.8 46.1913 38.4 46.1913C32 46.1913 25.6 46.1913 19.2 46.1913C12.8 46.1913 6.4 46.1913 3.2 46.1913H0" fill="#00A76F"/>
        <path d="M0 34.3708H3.2C6.4 34.3708 12.8 34.3708 19.2 29.3431C25.6 24.3906 32 14.2221 38.4 11.2657C44.8 8.19636 51.2 12.3391 57.6 10.2677C64 8.19636 70.4 0.28754 76.8 0.231049C83.2 0.28754 89.6 8.19636 92.8 12.2826L96 16.2935" stroke="#00A76F" stroke-width="4"/>
    </g>
    <defs>
        <linearGradient id="paint0_linear_3134_144911" x1="0" y1="0" x2="0" y2="46.1913" gradientUnits="userSpaceOnUse">
            <stop/>
            <stop offset="1" stop-opacity="0.16"/>
        </linearGradient>
    </defs>
</svg>
