<svg width="24" height="24" viewBox="0 0 24 24" fill="none" xmlns="http://www.w3.org/2000/svg">
<path d="M6.33057 17.3738C6.33057 17.9223 6.77822 18.3699 7.329 18.3699H8.47041V21.1918C8.47041 21.9067 9.04463 22.4903 9.7501 22.4903C10.4579 22.4903 11.0298 21.909 11.0298 21.1918V18.3676H13.022V21.1895C13.022 21.9043 13.5962 22.4879 14.3017 22.4879C15.0095 22.4879 15.5813 21.9067 15.5813 21.1895V18.3676H16.7228C17.2735 18.3676 17.7212 17.9199 17.7212 17.3715V8.109H6.33057V17.3738ZM14.7001 3.309L15.7524 1.78557C15.8134 1.6965 15.7993 1.57697 15.7173 1.51838C15.6353 1.46213 15.5181 1.49025 15.4571 1.57932L14.3649 3.16369C13.6454 2.8801 12.8438 2.72307 12.0024 2.72307C11.161 2.72307 10.3595 2.8801 9.63994 3.16369L8.54775 1.58166C8.48682 1.4926 8.36963 1.46213 8.2876 1.52072C8.20557 1.57697 8.1915 1.69416 8.25244 1.78791L9.30478 3.31135C7.63135 4.08947 6.45947 5.56369 6.30947 7.28635H17.7001C17.5454 5.56135 16.3712 4.08713 14.7001 3.309ZM9.59775 5.71135C9.47306 5.71135 9.35116 5.67437 9.24748 5.60509C9.1438 5.53582 9.063 5.43735 9.01528 5.32215C8.96756 5.20695 8.95507 5.08018 8.9794 4.95788C9.00373 4.83558 9.06377 4.72324 9.15195 4.63507C9.24012 4.5469 9.35246 4.48685 9.47476 4.46252C9.59705 4.4382 9.72382 4.45068 9.83902 4.4984C9.95423 4.54612 10.0527 4.62693 10.122 4.73061C10.1912 4.83429 10.2282 4.95618 10.2282 5.08088C10.2278 5.24796 10.1612 5.40807 10.0431 5.52621C9.92494 5.64435 9.76483 5.71091 9.59775 5.71135ZM14.4821 5.71135C14.3574 5.71135 14.2355 5.67437 14.1319 5.60509C14.0282 5.53582 13.9474 5.43735 13.8997 5.32215C13.8519 5.20695 13.8394 5.08018 13.8638 4.95788C13.8881 4.83558 13.9481 4.72324 14.0363 4.63507C14.1245 4.5469 14.2368 4.48685 14.3591 4.46252C14.4814 4.4382 14.6082 4.45068 14.7234 4.4984C14.8386 4.54612 14.9371 4.62693 15.0063 4.73061C15.0756 4.83429 15.1126 4.95618 15.1126 5.08088C15.1122 5.24796 15.0456 5.40807 14.9275 5.52621C14.8093 5.64435 14.6492 5.71091 14.4821 5.71135ZM19.7181 8.0715C19.0103 8.0715 18.4384 8.65275 18.4384 9.36994V14.4418C18.4384 15.1567 19.0126 15.7403 19.7181 15.7403C20.4259 15.7403 20.9978 15.159 20.9978 14.4418V9.3676C21.0001 8.65041 20.4282 8.0715 19.7181 8.0715ZM4.28213 8.0715C3.57432 8.0715 3.00244 8.65275 3.00244 9.36994V14.4418C3.00244 15.1567 3.57666 15.7403 4.28213 15.7403C4.98994 15.7403 5.56182 15.159 5.56182 14.4418V9.3676C5.56182 8.65041 4.9876 8.0715 4.28213 8.0715Z" fill="#1877F2"/>
</svg>
