<svg width="24" height="24" viewBox="0 0 24 24" fill="none" xmlns="http://www.w3.org/2000/svg">
<path fill-rule="evenodd" clip-rule="evenodd" d="M16.4319 7.53272C16.8242 7.92149 16.827 8.55465 16.4383 8.94692L13.2103 12.2039C12.8215 12.5962 12.1883 12.599 11.7961 12.2102C11.4038 11.8215 11.401 11.1883 11.7897 10.796L15.0177 7.53904C15.4065 7.14678 16.0397 7.14395 16.4319 7.53272ZM21.4341 7.53583C21.8246 7.92633 21.8246 8.5595 21.4341 8.95005L12.9501 17.435C12.7626 17.6226 12.5083 17.728 12.243 17.728C11.9778 17.728 11.7234 17.6226 11.5359 17.4351L7.29289 13.1921C6.90237 12.8016 6.90237 12.1684 7.29289 11.7779C7.68342 11.3873 8.31658 11.3873 8.70711 11.7779L12.243 15.3137L20.0199 7.53592C20.4104 7.14537 21.0435 7.14533 21.4341 7.53583ZM2.29289 11.7779C2.68342 11.3873 3.31658 11.3873 3.70711 11.7779L7.95011 16.0209C8.34063 16.4114 8.34063 17.0446 7.95011 17.4351C7.55958 17.8256 6.92642 17.8256 6.53589 17.4351L2.29289 13.1921C1.90237 12.8016 1.90237 12.1684 2.29289 11.7779Z" fill="#1877F2"/>
</svg>
