<svg width="24" height="24" viewBox="0 0 24 24" fill="none" xmlns="http://www.w3.org/2000/svg">
<path d="M3 13.6714C3 18.6714 7.02944 22.6714 12 22.6714C16.9706 22.6714 21 18.6714 21 13.6714C21 6.62373 15.4812 2.64209 13.0868 1.24627C12.7855 1.07061 12.6348 0.982783 12.4683 1.0028C12.3348 1.01884 12.1864 1.11009 12.1119 1.22191C12.0188 1.3615 12.0295 1.54087 12.0509 1.89962C12.2471 5.19213 12.7852 11.6714 9.42857 11.6714C7.27186 11.6714 6.92403 9.95177 6.86793 7.23382C6.85825 6.76502 6.85342 6.53062 6.72461 6.39127C6.62106 6.27925 6.4374 6.21406 6.28639 6.23573C6.09856 6.2627 5.96098 6.42512 5.68582 6.74998C4.55088 8.08988 3 10.5009 3 13.6714Z" fill="#1877F2"/>
</svg>
