<svg width="24" height="24" viewBox="0 0 24 24" fill="none" xmlns="http://www.w3.org/2000/svg">
<path d="M20.2701 16.2651L20.9751 12.1851C21.0164 11.946 21.0051 11.7007 20.9418 11.4664C20.8784 11.2322 20.7647 11.0145 20.6085 10.8288C20.4523 10.6431 20.2574 10.4937 20.0374 10.3912C19.8175 10.2886 19.5778 10.2354 19.3351 10.2351H14.1541C14.0332 10.2352 13.9137 10.2089 13.804 10.1581C13.6942 10.1073 13.5969 10.0332 13.5187 9.94099C13.4405 9.84879 13.3832 9.74066 13.351 9.62412C13.3188 9.50758 13.3123 9.38542 13.3321 9.26613L13.9951 5.22113C14.1027 4.56436 14.072 3.89237 13.9051 3.24813C13.8336 2.98193 13.6961 2.73811 13.5052 2.53933C13.3142 2.34054 13.0762 2.19325 12.8131 2.11113L12.6681 2.06413C12.3402 1.95882 11.9845 1.98316 11.6741 2.13213C11.3341 2.29613 11.0861 2.59513 10.9941 2.95013L10.5181 4.78413C10.3665 5.36776 10.1463 5.93136 9.86208 6.46313C9.44708 7.24013 8.80508 7.86313 8.13708 8.43813L6.69808 9.67813C6.49845 9.85064 6.34253 10.068 6.24311 10.3124C6.14368 10.5568 6.10358 10.8212 6.12608 11.0841L6.93808 20.4771C6.97387 20.8925 7.16412 21.2794 7.47127 21.5614C7.77842 21.8434 8.18013 21.9999 8.59708 22.0001H13.2451C16.7271 22.0001 19.6981 19.5741 20.2701 16.2651Z" fill="#1877F2"/>
<path fill-rule="evenodd" clip-rule="evenodd" d="M2.96808 9.48513C3.16134 9.47668 3.35039 9.54323 3.49574 9.67088C3.64109 9.79853 3.7315 9.9774 3.74808 10.1701L4.71808 21.4061C4.73451 21.5735 4.71666 21.7424 4.66562 21.9026C4.61458 22.0627 4.53142 22.2109 4.42122 22.3378C4.31102 22.4648 4.17609 22.568 4.02468 22.6411C3.87327 22.7141 3.70855 22.7556 3.54058 22.7629C3.37261 22.7701 3.20492 22.7431 3.04775 22.6834C2.89058 22.6237 2.74723 22.5326 2.62646 22.4156C2.50568 22.2987 2.41002 22.1583 2.3453 22.0032C2.28059 21.848 2.24819 21.6812 2.25008 21.5131V10.2341C2.25016 10.0408 2.32488 9.85499 2.45866 9.71544C2.59244 9.57589 2.77494 9.49338 2.96808 9.48513Z" fill="#1877F2"/>
</svg>
