<svg width="32" height="32" viewBox="0 0 32 32" fill="none" xmlns="http://www.w3.org/2000/svg">
<path d="M29.3327 10.8828V10.9802C29.3327 12.1268 29.3327 12.7015 29.0567 13.1708C28.7807 13.6402 28.278 13.9188 27.2754 14.4775L26.218 15.0642C26.946 12.6002 27.19 9.95215 27.2793 7.68815L27.2927 7.39348L27.2953 7.32415C28.1633 7.62548 28.6513 7.85082 28.9553 8.27215C29.3327 8.79615 29.3327 9.49215 29.3327 10.8828ZM2.66602 10.8828V10.9802C2.66602 12.1268 2.66602 12.7015 2.94202 13.1708C3.21802 13.6402 3.72068 13.9188 4.72335 14.4775L5.78202 15.0642C5.05268 12.6002 4.80868 9.95215 4.71935 7.68815L4.70602 7.39348L4.70468 7.32415C3.83535 7.62548 3.34735 7.85082 3.04335 8.27215C2.66602 8.79615 2.66602 9.49348 2.66602 10.8828Z" fill="white"/>
<path fill-rule="evenodd" clip-rule="evenodd" d="M15.9993 2.66682C18.378 2.66682 20.3367 2.87615 21.8354 3.12948C23.354 3.38548 24.1127 3.51348 24.7474 4.29482C25.382 5.07615 25.3474 5.92015 25.2807 7.60815C25.0514 13.4068 23.8007 20.6482 16.9993 21.2882V26.0002H18.906C19.2141 26.0003 19.5127 26.1072 19.7509 26.3027C19.9891 26.4981 20.1523 26.77 20.2127 27.0722L20.466 28.3335H23.9993C24.2646 28.3335 24.5189 28.4388 24.7065 28.6264C24.894 28.8139 24.9993 29.0683 24.9993 29.3335C24.9993 29.5987 24.894 29.8531 24.7065 30.0406C24.5189 30.2281 24.2646 30.3335 23.9993 30.3335H7.99935C7.73413 30.3335 7.47978 30.2281 7.29224 30.0406C7.10471 29.8531 6.99935 29.5987 6.99935 29.3335C6.99935 29.0683 7.10471 28.8139 7.29224 28.6264C7.47978 28.4388 7.73413 28.3335 7.99935 28.3335H11.5327L11.786 27.0722C11.8464 26.77 12.0096 26.4981 12.2478 26.3027C12.486 26.1072 12.7846 26.0003 13.0927 26.0002H14.9993V21.2882C8.19935 20.6482 6.94868 13.4055 6.71935 7.60815C6.65135 5.92015 6.61802 5.07482 7.25268 4.29482C7.88602 3.51348 8.64468 3.38548 10.1633 3.12948C12.0924 2.81332 14.0445 2.65856 15.9993 2.66682ZM17.2687 8.26548L17.138 8.03082C16.6313 7.12015 16.378 6.66682 15.9993 6.66682C15.6207 6.66682 15.3673 7.12015 14.8607 8.03082L14.73 8.26548C14.586 8.52415 14.514 8.65215 14.402 8.73748C14.2887 8.82282 14.1487 8.85482 13.8687 8.91748L13.6153 8.97615C12.6313 9.19882 12.1393 9.30948 12.022 9.68548C11.9047 10.0628 12.2407 10.4548 12.9113 11.2388L13.0847 11.4415C13.2753 11.6642 13.3713 11.7748 13.414 11.9135C13.4567 12.0522 13.442 12.2002 13.414 12.4975L13.3873 12.7682C13.286 13.8148 13.2353 14.3388 13.5407 14.5708C13.8473 14.8028 14.3087 14.5908 15.23 14.1668L15.4673 14.0575C15.73 13.9375 15.8607 13.8775 15.9993 13.8775C16.138 13.8775 16.2687 13.9375 16.5313 14.0575L16.7687 14.1668C17.69 14.5922 18.1513 14.8028 18.458 14.5708C18.7647 14.3388 18.7127 13.8148 18.6113 12.7682L18.5847 12.4975C18.5567 12.2002 18.542 12.0522 18.5847 11.9135C18.6273 11.7762 18.7233 11.6642 18.914 11.4415L19.0873 11.2388C19.758 10.4548 20.094 10.0628 19.9767 9.68548C19.8593 9.30948 19.3673 9.19882 18.3833 8.97615L18.13 8.91748C17.85 8.85482 17.71 8.82415 17.5967 8.73748C17.4847 8.65215 17.4127 8.52415 17.2687 8.26548Z" fill="white"/>
</svg>
