<svg width="24" height="24" viewBox="0 0 24 24" fill="none" xmlns="http://www.w3.org/2000/svg">
<path d="M3 6.37611C3 5.89211 3.345 5.49911 3.771 5.49911H6.436C6.965 5.48311 7.432 5.10011 7.612 4.53411L7.642 4.43411L7.757 4.04311C7.827 3.80311 7.888 3.59311 7.974 3.40611C8.312 2.66711 8.938 2.15411 9.661 2.02311C9.845 1.99011 10.039 1.99011 10.261 1.99011H13.739C13.962 1.99011 14.156 1.99011 14.339 2.02311C15.062 2.15411 15.689 2.66711 16.026 3.40611C16.112 3.59311 16.173 3.80211 16.244 4.04311L16.358 4.43411L16.388 4.53411C16.568 5.10011 17.128 5.48411 17.658 5.49911H20.228C20.655 5.49911 21 5.89211 21 6.37611C21 6.86011 20.655 7.25311 20.229 7.25311H3.77C3.345 7.25311 3 6.86011 3 6.37611Z" fill="#1877F2"/>
<path fill-rule="evenodd" clip-rule="evenodd" d="M11.596 21.9901H12.404C15.187 21.9901 16.578 21.9901 17.484 21.1041C18.388 20.2181 18.48 18.7651 18.665 15.8591L18.932 11.6711C19.032 10.0941 19.082 9.30511 18.629 8.80611C18.175 8.30611 17.409 8.30611 15.876 8.30611H8.124C6.591 8.30611 5.824 8.30611 5.371 8.80611C4.917 9.30611 4.967 10.0941 5.068 11.6711L5.335 15.8591C5.52 18.7651 5.612 20.2191 6.517 21.1041C7.422 21.9901 8.813 21.9901 11.596 21.9901ZM10.246 12.1791C10.206 11.7451 9.838 11.4291 9.426 11.4721C9.013 11.5151 8.713 11.9021 8.754 12.3361L9.254 17.5991C9.294 18.0331 9.662 18.3491 10.074 18.3061C10.487 18.2631 10.787 17.8761 10.746 17.4421L10.246 12.1791ZM14.575 11.4721C14.987 11.5151 15.288 11.9021 15.246 12.3361L14.746 17.5991C14.706 18.0331 14.337 18.3491 13.926 18.3061C13.513 18.2631 13.213 17.8761 13.254 17.4421L13.754 12.1791C13.794 11.7451 14.164 11.4291 14.575 11.4721Z" fill="#1877F2"/>
</svg>
