<svg width="24" height="24" viewBox="0 0 24 24" fill="none" xmlns="http://www.w3.org/2000/svg">
<path fill-rule="evenodd" clip-rule="evenodd" d="M3.03986 2.2921C2.85209 2.22619 2.64582 2.23758 2.46644 2.32375C2.28707 2.40993 2.14927 2.56383 2.08336 2.7516C2.01745 2.93937 2.02884 3.14564 2.11501 3.32502C2.20119 3.50439 2.35509 3.64219 2.54286 3.7081L2.80386 3.7991C3.47186 4.0341 3.91086 4.1891 4.23386 4.3481C4.53686 4.4971 4.66986 4.6181 4.75786 4.7461C4.84786 4.8781 4.91786 5.0601 4.95786 5.4231C4.99786 5.8031 4.99986 6.2981 4.99986 7.0381V9.6401C4.99986 12.5821 5.06286 13.5521 5.92986 14.4661C6.79586 15.3801 8.18986 15.3801 10.9799 15.3801H16.2819C17.8429 15.3801 18.6239 15.3801 19.1749 14.9301C19.7269 14.4801 19.8849 13.7161 20.1999 12.1881L20.6999 9.7631C21.0469 8.0231 21.2199 7.1541 20.7759 6.5771C20.3319 6.0001 18.8159 6.0001 17.1309 6.0001H6.49186C6.4876 5.75362 6.47326 5.50741 6.44886 5.2621C6.39486 4.7651 6.27886 4.3121 5.99686 3.9001C5.71286 3.4841 5.33486 3.2181 4.89386 3.0011C4.48186 2.7991 3.95786 2.6151 3.34186 2.3981L3.03986 2.2921ZM12.9999 8.2501C13.1988 8.2501 13.3895 8.32912 13.5302 8.46977C13.6708 8.61042 13.7499 8.80119 13.7499 9.0001V10.2501H14.9999C15.1988 10.2501 15.3895 10.3291 15.5302 10.4698C15.6708 10.6104 15.7499 10.8012 15.7499 11.0001C15.7499 11.199 15.6708 11.3898 15.5302 11.5304C15.3895 11.6711 15.1988 11.7501 14.9999 11.7501H13.7499V13.0001C13.7499 13.199 13.6708 13.3898 13.5302 13.5304C13.3895 13.6711 13.1988 13.7501 12.9999 13.7501C12.8009 13.7501 12.6102 13.6711 12.4695 13.5304C12.3289 13.3898 12.2499 13.199 12.2499 13.0001V11.7501H10.9999C10.8009 11.7501 10.6102 11.6711 10.4695 11.5304C10.3289 11.3898 10.2499 11.199 10.2499 11.0001C10.2499 10.8012 10.3289 10.6104 10.4695 10.4698C10.6102 10.3291 10.8009 10.2501 10.9999 10.2501H12.2499V9.0001C12.2499 8.80119 12.3289 8.61042 12.4695 8.46977C12.6102 8.32912 12.8009 8.2501 12.9999 8.2501Z" fill="#1877F2"/>
<path d="M7.49986 18.0001C7.89769 18.0001 8.27922 18.1581 8.56052 18.4394C8.84183 18.7207 8.99986 19.1023 8.99986 19.5001C8.99986 19.8979 8.84183 20.2795 8.56052 20.5608C8.27922 20.8421 7.89769 21.0001 7.49986 21.0001C7.10204 21.0001 6.7205 20.8421 6.4392 20.5608C6.1579 20.2795 5.99986 19.8979 5.99986 19.5001C5.99986 19.1023 6.1579 18.7207 6.4392 18.4394C6.7205 18.1581 7.10204 18.0001 7.49986 18.0001ZM16.4999 18.0001C16.8977 18.0001 17.2792 18.1581 17.5605 18.4394C17.8418 18.7207 17.9999 19.1023 17.9999 19.5001C17.9999 19.8979 17.8418 20.2795 17.5605 20.5608C17.2792 20.8421 16.8977 21.0001 16.4999 21.0001C16.102 21.0001 15.7205 20.8421 15.4392 20.5608C15.1579 20.2795 14.9999 19.8979 14.9999 19.5001C14.9999 19.1023 15.1579 18.7207 15.4392 18.4394C15.7205 18.1581 16.102 18.0001 16.4999 18.0001Z" fill="#1877F2"/>
</svg>
