<svg width="24" height="24" viewBox="0 0 24 24" fill="none" xmlns="http://www.w3.org/2000/svg">
<path d="M22 12.6981C21.998 14.1681 21.987 15.4161 21.904 16.4411C21.807 17.6311 21.608 18.6251 21.164 19.4501C20.9702 19.8118 20.7243 20.1431 20.434 20.4331C19.601 21.2661 18.541 21.6431 17.197 21.8231C15.884 22.0001 14.2 22.0001 12.053 22.0001H11.947C9.799 22.0001 8.117 22.0001 6.803 21.8231C5.46 21.6431 4.399 21.2661 3.567 20.4331C2.829 19.6951 2.447 18.7771 2.245 17.6381C2.045 16.5181 2.009 15.1261 2.002 13.3971C2 12.9571 2 12.4921 2 12.0001V11.9461C2 9.79812 2 8.11612 2.177 6.80211C2.357 5.45912 2.734 4.39812 3.567 3.56612C4.399 2.73312 5.46 2.35612 6.803 2.17612C7.971 2.01912 9.473 2.00111 11.302 1.99911C11.4871 1.99911 11.6647 2.07265 11.7956 2.20355C11.9265 2.33445 12 2.51199 12 2.69712C12 2.88224 11.9265 3.05978 11.7956 3.19068C11.6647 3.32158 11.4871 3.39512 11.302 3.39512C9.447 3.39711 8.068 3.41312 6.989 3.55812C5.8 3.71812 5.083 4.02211 4.553 4.55211C4.023 5.08211 3.72 5.80011 3.56 6.99011C3.397 8.20011 3.395 9.78812 3.395 12.0001V12.7841L4.327 11.9701C4.73553 11.6127 5.26462 11.4238 5.80715 11.4419C6.34967 11.4599 6.86508 11.6834 7.249 12.0671L11.239 16.0571C11.5486 16.3669 11.9575 16.5574 12.3938 16.5953C12.83 16.6332 13.2657 16.5159 13.624 16.2641L13.902 16.0691C14.4188 15.7059 15.0435 15.5288 15.674 15.5667C16.3046 15.6047 16.9035 15.8555 17.373 16.2781L20.006 18.6481C20.271 18.0911 20.429 17.3601 20.513 16.3281C20.592 15.3561 20.603 14.1761 20.604 12.6981C20.604 12.513 20.6775 12.3355 20.8084 12.2046C20.9393 12.0737 21.1169 12.0001 21.302 12.0001C21.4871 12.0001 21.6647 12.0737 21.7956 12.2046C21.9265 12.3355 22 12.513 22 12.6981Z" fill="#1877F2"/>
<path fill-rule="evenodd" clip-rule="evenodd" d="M17.5 11.0001C15.379 11.0001 14.318 11.0001 13.659 10.3411C13 9.68212 13 8.62111 13 6.50011C13 4.37911 13 3.31811 13.659 2.65911C14.318 2.00011 15.379 2.00012 17.5 2.00012C19.621 2.00012 20.682 2.00011 21.341 2.65911C22 3.31811 22 4.37911 22 6.50011C22 8.62111 22 9.68212 21.341 10.3411C20.682 11.0001 19.621 11.0001 17.5 11.0001ZM18.25 4.50011C18.25 4.3012 18.171 4.11044 18.0303 3.96978C17.8897 3.82913 17.6989 3.75012 17.5 3.75012C17.3011 3.75012 17.1103 3.82913 16.9697 3.96978C16.829 4.11044 16.75 4.3012 16.75 4.50011V5.75011H15.5C15.3011 5.75011 15.1103 5.82913 14.9697 5.96978C14.829 6.11044 14.75 6.3012 14.75 6.50011C14.75 6.69903 14.829 6.88979 14.9697 7.03045C15.1103 7.1711 15.3011 7.25011 15.5 7.25011H16.75V8.50011C16.75 8.69903 16.829 8.88979 16.9697 9.03044C17.1103 9.1711 17.3011 9.25011 17.5 9.25011C17.6989 9.25011 17.8897 9.1711 18.0303 9.03044C18.171 8.88979 18.25 8.69903 18.25 8.50011V7.25011H19.5C19.6989 7.25011 19.8897 7.1711 20.0303 7.03045C20.171 6.88979 20.25 6.69903 20.25 6.50011C20.25 6.3012 20.171 6.11044 20.0303 5.96978C19.8897 5.82913 19.6989 5.75011 19.5 5.75011H18.25V4.50011Z" fill="#1877F2"/>
</svg>
