<svg xmlns="http://www.w3.org/2000/svg" width="165" height="62" viewBox="0 0 165 62" fill="none">    <g clip-path="url(#clip0_0_1)">        <path opacity="0.3" d="M106.879 51.0139C106.872 57.0872 101.942 62.0048 95.8685 61.9978C89.7972 61.9902 84.8793 57.0604 84.8868 50.9873C84.8931 44.9135 89.8225 39.9953 95.8948 40.0027C101.968 40.0098 106.886 44.9403 106.879 51.0139L106.879 51.0139Z" fill="#F7931A"/>        <path fill-rule="evenodd" clip-rule="evenodd" d="M98.7904 48.962C98.6953 47.9626 97.833 47.6265 96.7439 47.5298L96.7455 46.1435L95.9015 46.1427L95.9 47.4924C95.6784 47.4921 95.4516 47.4962 95.2263 47.5004L95.2281 46.1418L94.3847 46.1408L94.3828 47.5266C94.2001 47.5301 94.0207 47.5333 93.8458 47.5332L93.8457 47.5289L92.6819 47.5271L92.681 48.4283C92.681 48.4283 93.3041 48.4172 93.2938 48.4287C93.6355 48.4292 93.7468 48.6277 93.7787 48.799L93.7769 50.3782C93.8005 50.3783 93.8312 50.3794 93.8661 50.3842L93.7772 50.3841L93.7741 52.5965C93.759 52.7041 93.6955 52.8755 93.4568 52.8756C93.4675 52.8852 92.8434 52.8747 92.8434 52.8747L92.6746 53.8825L93.7729 53.8837C93.8969 53.884 94.0197 53.8854 94.1412 53.8869L94.1413 53.8869C94.2199 53.8878 94.298 53.8888 94.3754 53.8894L94.3742 55.2916L95.2171 55.2928L95.2189 53.9055C95.4501 53.9106 95.6741 53.9127 95.8927 53.9128L95.8907 55.2936L96.7345 55.2945L96.7365 53.895C98.1551 53.8153 99.1487 53.459 99.2731 52.1274C99.374 51.0548 98.8702 50.5755 98.0651 50.381C98.5545 50.132 98.8609 49.6934 98.7902 48.9621L98.7904 48.962ZM97.6061 51.9585C97.6052 52.9202 96.0943 52.8972 95.4035 52.8867L95.4035 52.8867C95.3417 52.8857 95.2864 52.8849 95.2394 52.8849L95.2418 51.0273C95.2993 51.0273 95.3691 51.0258 95.4482 51.024C96.1562 51.0081 97.607 50.9756 97.6063 51.9584L97.6061 51.9585ZM95.3816 50.1788C95.9583 50.1889 97.2153 50.211 97.2166 49.3373C97.2177 48.4435 96.0084 48.4742 95.4178 48.4892C95.3514 48.4908 95.2928 48.4923 95.2446 48.4923L95.2426 50.177C95.2823 50.1771 95.3292 50.1779 95.3816 50.1788Z" fill="#F7931A"/>    </g>    <path opacity="0.3" d="M124.883 62C130.958 62 135.883 57.0751 135.883 51C135.883 44.9249 130.958 40 124.883 40C118.808 40 113.883 44.9249 113.883 51C113.883 57.0751 118.808 62 124.883 62Z" fill="#3AB83A"/>    <mask id="mask0_0_1" style="mask-type:alpha" maskUnits="userSpaceOnUse" x="113" y="40" width="23" height="22">        <path d="M124.883 62C130.958 62 135.883 57.0751 135.883 51C135.883 44.9249 130.958 40 124.883 40C118.808 40 113.883 44.9249 113.883 51C113.883 57.0751 118.808 62 124.883 62Z" fill="white"/>    </mask>    <g mask="url(#mask0_0_1)">        <path fill-rule="evenodd" clip-rule="evenodd" d="M122.344 50.4297L125.318 48.4967L128.267 50.4417L125.305 45.0769L122.344 50.4297ZM122.458 50.988L125.321 49.101L128.147 50.974L125.323 52.863L122.458 50.988ZM122.344 51.5283C123.388 52.2126 124.477 52.929 125.318 53.4833L128.267 51.5283C127.199 53.4873 126.31 55.1182 125.318 56.9231L124.71 55.8205C123.893 54.3396 123.05 52.8125 122.344 51.5283Z" fill="#3AB83A"/>        <path fill-rule="evenodd" clip-rule="evenodd" d="M125.306 45.0769L125.317 48.4967L128.267 50.4417L125.306 45.0769ZM125.32 49.101L128.164 50.974L125.321 52.863L125.32 49.101ZM125.317 53.4833L128.267 51.5283C127.352 53.4873 125.317 56.9231 125.317 56.9231V53.4833Z" fill="#2A822A"/>    </g>    <path opacity="0.3" d="M164.823 51.0002C164.823 57.0434 159.924 61.9423 153.881 61.9423C147.838 61.9423 142.939 57.0434 142.939 51.0002C142.939 44.9571 147.838 40.0582 153.881 40.0582C159.924 40.0582 164.823 44.9571 164.823 51.0002Z" fill="#00A478"/>    <path d="M152.759 50.8086V48.8944H150.163V47.2164H157.418V48.918H154.822V50.8086H152.759Z" fill="#00A478"/>    <path fill-rule="evenodd" clip-rule="evenodd" d="M149.047 51.0213C149.047 50.3832 151.133 49.8633 153.73 49.8633C156.326 49.8633 158.413 50.3832 158.413 51.0213C158.413 51.6594 156.326 52.1793 153.73 52.1793C151.133 52.1793 149.047 51.6594 149.047 51.0213ZM158.025 51.0213C157.855 50.785 156.447 50.0524 153.73 50.0524C151.012 50.0524 149.605 50.7614 149.435 51.0213C149.605 51.2576 151.012 51.6121 153.73 51.6121C156.472 51.6121 157.855 51.2576 158.025 51.0213Z" fill="#00A478"/>    <path d="M154.821 51.3995V50.076C154.482 50.0524 154.118 50.0287 153.754 50.0287C153.414 50.0287 153.099 50.0287 152.783 50.0524V51.3758C153.074 51.3758 153.414 51.3995 153.754 51.3995C154.118 51.4231 154.482 51.4231 154.821 51.3995Z" fill="#00A478"/>    <path d="M153.73 52.1793C153.39 52.1793 153.074 52.1793 152.759 52.1557V55.677H154.797V52.1321C154.458 52.1557 154.094 52.1793 153.73 52.1793Z" fill="#00A478"/>    <path class="x-pay" d="M86.7705 1.46525C84.5161 0.797383 82.1804 0.446289 79.8301 0.421973C74.0636 0.253493 68.2908 0.363652 62.5243 0.370132C62.2043 0.386828 61.8857 0.421444 61.5696 0.473814V23.6528H67.5876V16.7645C71.6899 16.7645 75.6504 16.9136 79.5979 16.7127C81.9845 16.5895 84.6484 16.4081 86.9059 15.637C90.2149 14.5095 91.5244 11.749 91.4857 8.37942C91.4469 5.22364 90.0214 2.54741 86.7705 1.46525ZM83.4165 11.2889C82.5121 11.5683 81.5753 11.7273 80.6299 11.762C76.5148 11.8203 72.3931 11.7944 68.2714 11.7944C68.0552 11.7833 67.8398 11.7595 67.6263 11.7231V5.58654C72.6382 5.58654 77.579 5.48933 82.507 5.6319C84.4097 5.69021 85.2934 6.75295 85.4095 8.26927C85.5357 8.9344 85.3979 9.62274 85.0254 10.1871C84.653 10.7514 84.0754 11.1469 83.4165 11.2889Z" fill="currentColor"/>    <path class="x-pay" d="M110.646 0.385712H104.402L89.7534 23.7137H96.2036L99.0353 19.1389H116.019L118.85 23.7137H125.3L110.652 0.385712H110.646ZM112.968 14.2335H102.073L107.517 5.43365L112.968 14.2335Z" fill="currentColor"/>    <path class="x-pay" d="M153.259 0.368622H146.093L136.637 11.4754L136.644 11.4883L136.592 11.4754L136.553 11.4818L136.56 11.4754L127.104 0.368622H119.938L133.638 15.7845V23.6383H139.636V15.6939L153.259 0.368622Z" fill="currentColor"/>    <path d="M30.1803 8.29684L26.2264 12.0293L14.1838 0.345856H21.7499L30.1803 8.29684Z" fill="#413DF6"/>    <path d="M26.2264 12.0281L30.1803 15.8578L22.1047 23.6856H14.1838L26.2264 12.0281Z" fill="#413DF6"/>    <path d="M46.1699 0.345856L34.1273 12.0293L30.1798 15.859L26.2258 12.0293L30.1798 8.29684L38.6038 0.345856H46.1699Z" fill="#3EB8EB"/>    <path d="M17.3664 9.98727H11V14.2511H17.3664V9.98727Z" fill="#413DF6"/>    <path d="M49.3573 9.98688H42.991V14.2507H49.3573V9.98688Z" fill="#40B5E8"/>    <path d="M46.1699 23.6838H38.249L30.1798 15.8559L26.2258 12.0262L30.1798 8.29373L34.1273 12.0262L46.1699 23.6838Z" fill="#40B5E8"/>    <path class="visa" fill-rule="evenodd" clip-rule="evenodd" d="M56.7663 48.3073C56.7414 50.3876 58.5197 51.5485 59.8592 52.2387C61.2355 52.9469 61.6978 53.4011 61.6926 54.0343C61.6821 55.0036 60.5946 55.4313 59.5769 55.4479C57.8012 55.4771 56.7689 54.9411 55.9481 54.5356L55.3086 57.7004C56.132 58.1018 57.6568 58.4517 59.238 58.467C62.9494 58.467 65.3776 56.5297 65.3908 53.5261C65.4053 49.7141 60.4042 49.503 60.4383 47.7991C60.4502 47.2825 60.9164 46.7311 61.9381 46.5909C62.4437 46.5201 63.8398 46.4659 65.4223 47.2366L66.0435 44.1746C65.1925 43.8469 64.0985 43.533 62.7366 43.533C59.2433 43.533 56.7861 45.4966 56.7663 48.3073ZM72.0125 43.7968C71.3348 43.7968 70.7635 44.2149 70.5088 44.8564L65.2069 58.242H68.9157L69.6537 56.0853H74.1859L74.6141 58.242H77.8829L75.0303 43.7968H72.0125ZM72.5312 47.699L73.6015 53.1233H70.6702L72.5312 47.699ZM52.2697 43.7968L49.3463 58.242H52.8803L55.8024 43.7968H52.2697ZM47.0414 43.7968L43.3628 53.6287L41.8749 45.2688C41.7002 44.3357 41.0107 43.7968 40.2451 43.7968H34.2315L34.1475 44.2162C35.382 44.4995 36.7846 44.9564 37.6343 45.4452C38.1543 45.7438 38.3028 46.0048 38.4734 46.7145L41.2917 58.242H45.0269L50.7528 43.7968H47.0414Z" fill="currentColor"/>    <path d="M17.2446 44.3772H9.90381V57.6229H17.2446V44.3772Z" fill="#FF5F00"/>    <path d="M10.3696 51C10.3684 49.7244 10.6563 48.4652 11.2115 47.3178C11.7666 46.1703 12.5745 45.1648 13.5739 44.3772C12.3363 43.4004 10.8499 42.793 9.28473 42.6243C7.71955 42.4556 6.13869 42.7325 4.72282 43.4233C3.30695 44.1141 2.11321 45.191 1.27805 46.5308C0.442887 47.8707 0 49.4194 0 51C0 52.5807 0.442887 54.1294 1.27805 55.4693C2.11321 56.8091 3.30695 57.886 4.72282 58.5768C6.13869 59.2676 7.71955 59.5445 9.28473 59.3758C10.8499 59.2071 12.3363 58.5997 13.5739 57.6229C12.5745 56.8353 11.7666 55.8297 11.2115 54.6823C10.6563 53.5349 10.3684 52.2757 10.3696 51Z" fill="#EB001B"/>    <path d="M27.1477 51C27.1477 52.5807 26.7049 54.1294 25.8698 55.4692C25.0347 56.8091 23.841 57.8859 22.4251 58.5768C21.0093 59.2676 19.4284 59.5445 17.8633 59.3758C16.2981 59.2071 14.8118 58.5997 13.5742 57.6229C14.5727 56.8345 15.38 55.8288 15.935 54.6815C16.4901 53.5343 16.7785 52.2755 16.7785 51C16.7785 49.7246 16.4901 48.4658 15.935 47.3185C15.38 46.1713 14.5727 45.1656 13.5742 44.3772C14.8118 43.4004 16.2981 42.793 17.8633 42.6243C19.4284 42.4556 21.0093 42.7325 22.4251 43.4233C23.841 44.1141 25.0347 45.191 25.8698 46.5309C26.7049 47.8707 27.1477 49.4194 27.1477 51Z" fill="#F79E1B"/>    <path fill-rule="evenodd" clip-rule="evenodd" d="M13.5741 44.3772H13.5739L13.5739 44.3772C12.5745 45.1648 11.7667 46.1703 11.2115 47.3178C10.6564 48.4652 10.3685 49.7244 10.3696 51C10.3685 52.2757 10.6564 53.5349 11.2115 54.6823C11.7667 55.8297 12.5745 56.8353 13.5739 57.6229H13.5741C14.5726 56.8345 15.3799 55.8288 15.9349 54.6815C16.49 53.5343 16.7784 52.2755 16.7784 51C16.7784 49.7246 16.49 48.4658 15.9349 47.3185C15.3799 46.1713 14.5726 45.1656 13.5741 44.3772C13.5741 44.3772 13.5741 44.3772 13.5741 44.3772Z" fill="#FF5F00"/>    <path d="M26.3469 56.22V55.9488H26.4558V55.8935H26.1785V55.9488H26.2874V56.22H26.3469ZM26.8853 56.22V55.893H26.8003L26.7026 56.1179L26.6047 55.893H26.5197V56.22H26.5797V55.9733L26.6714 56.186H26.7337L26.8254 55.9728V56.22H26.8853Z" fill="#F79E1B"/>    <defs>        <clipPath id="clip0_0_1">            <rect width="22" height="22" fill="white" transform="translate(84.8828 40)"/>        </clipPath>    </defs></svg>