<svg width="24" height="24" viewBox="0 0 24 24" fill="none" xmlns="http://www.w3.org/2000/svg">
<g clip-path="url(#clip0_10_40171)">
<mask id="mask0_10_40171" style="mask-type:luminance" maskUnits="userSpaceOnUse" x="0" y="0" width="24" height="24">
<path d="M24 0H0V24H24V0Z" fill="white"/>
</mask>
<g mask="url(#mask0_10_40171)">
<path d="M17.0938 16.638L13.1578 7.12201C12.9358 6.63001 12.6058 6.39001 12.1708 6.39001H11.8228C11.3878 6.39001 11.0578 6.63001 10.8358 7.12201L9.12284 11.268H7.82684C7.43984 11.271 7.12484 11.583 7.12184 11.973V11.982C7.12484 12.369 7.43984 12.684 7.82684 12.687H8.52284L6.88784 16.638C6.85784 16.725 6.83984 16.815 6.83984 16.908C6.83984 17.13 6.90884 17.304 7.03184 17.439C7.15484 17.574 7.33184 17.64 7.55384 17.64C7.70084 17.637 7.84184 17.592 7.95884 17.505C8.08484 17.418 8.17184 17.292 8.24084 17.148L10.0408 12.684H11.2888C11.6758 12.681 11.9908 12.369 11.9938 11.979V11.961C11.9908 11.574 11.6758 11.259 11.2888 11.256H10.6228L11.9968 7.83301L15.7408 17.145C15.8098 17.289 15.8968 17.415 16.0228 17.502C16.1398 17.589 16.2838 17.634 16.4278 17.637C16.6498 17.637 16.8238 17.571 16.9498 17.436C17.0758 17.301 17.1418 17.127 17.1418 16.905C17.1448 16.815 17.1298 16.722 17.0938 16.638Z" fill="black"/>
</g>
</g>
<defs>
<clipPath id="clip0_10_40171">
<rect width="24" height="24" fill="white"/>
</clipPath>
</defs>
</svg>
