<svg width="40" height="40" viewBox="0 0 40 40" fill="none" xmlns="http://www.w3.org/2000/svg">
<path fill-rule="evenodd" clip-rule="evenodd" d="M26.0237 17.6765C26.2934 15.8712 24.9188 14.9007 23.0392 14.2532L23.6489 11.8076L22.1599 11.4366L21.5663 13.8178C21.1754 13.7203 20.7734 13.6283 20.374 13.5371L20.9719 11.1403L19.4841 10.7693L18.874 13.214C18.55 13.1402 18.232 13.0673 17.9234 12.9906L17.9251 12.9829L15.8721 12.4703L15.4761 14.0603C15.4761 14.0603 16.5806 14.3134 16.5573 14.3291C17.1602 14.4796 17.2696 14.8786 17.2509 15.1949L16.5564 17.981C16.598 17.9915 16.6518 18.0068 16.7112 18.0306L16.5543 17.9915L15.5804 21.8944C15.5066 22.0776 15.3196 22.3523 14.8982 22.248C14.913 22.2696 13.8162 21.9779 13.8162 21.9779L13.0771 23.6824L15.0148 24.1653C15.2335 24.2201 15.4496 24.2765 15.6633 24.3322L15.664 24.3324C15.8021 24.3684 15.9393 24.4042 16.0756 24.4392L15.4596 26.9132L16.9465 27.2842L17.557 24.8369C17.9628 24.9471 18.3571 25.0489 18.7429 25.1447L18.1349 27.5805L19.6236 27.9515L20.2396 25.4826C22.7781 25.963 24.6873 25.7692 25.4899 23.4738C26.1373 21.6252 25.4581 20.5588 24.1225 19.863C25.0952 19.6379 25.8278 18.9981 26.0233 17.6765H26.0237ZM22.622 22.446C22.1994 24.1427 19.5431 23.4406 18.3288 23.1197L18.3287 23.1197C18.22 23.091 18.1229 23.0653 18.04 23.0447L18.8574 19.7676C18.9588 19.793 19.0827 19.8208 19.2231 19.8523C20.4793 20.1342 23.0538 20.7119 22.6225 22.446H22.622ZM19.4756 18.3316C20.4888 18.6019 22.6973 19.1911 23.0821 17.6498C23.4754 16.073 21.3278 15.5978 20.279 15.3657C20.1611 15.3396 20.0571 15.3166 19.9721 15.2954L19.231 18.2676C19.3011 18.285 19.3834 18.307 19.4756 18.3316Z" fill="#F7931A"/>
</svg>
