<svg width="40" height="40" viewBox="0 0 40 40" fill="none" xmlns="http://www.w3.org/2000/svg">
<path d="M17.9569 19.6521V16.1716H13.2363V13.1208H26.4275V16.2146H21.7069V19.6521H17.9569Z" fill="#00A478"/>
<path fill-rule="evenodd" clip-rule="evenodd" d="M11.207 20.0388C11.207 18.8787 15.0011 17.9333 19.7217 17.9333C24.4423 17.9333 28.2364 18.8787 28.2364 20.0388C28.2364 21.199 24.4423 22.1443 19.7217 22.1443C15.0011 22.1443 11.207 21.199 11.207 20.0388ZM27.5306 20.0388C27.2217 19.6091 24.6629 18.2771 19.7217 18.2771C14.7806 18.2771 12.2217 19.5662 11.9129 20.0388C12.2217 20.4685 14.7806 21.113 19.7217 21.113C24.707 21.113 27.2217 20.4685 27.5306 20.0388Z" fill="#00A478"/>
<path d="M21.7069 20.7263V18.3201C21.0892 18.2771 20.4274 18.2341 19.7657 18.2341C19.148 18.2341 18.5745 18.2341 18.001 18.2771V20.6833C18.5304 20.6833 19.148 20.7263 19.7657 20.7263C20.4274 20.7693 21.0892 20.7693 21.7069 20.7263Z" fill="#00A478"/>
<path d="M19.7217 22.1443C19.1041 22.1443 18.5306 22.1443 17.957 22.1013V28.5037H21.6629V22.0583C21.0453 22.1013 20.3835 22.1443 19.7217 22.1443Z" fill="#00A478"/>
</svg>
