<svg width="24" height="24" viewBox="0 0 24 24" fill="none" xmlns="http://www.w3.org/2000/svg">
<path d="M15.329 10.0564C15.1279 9.93769 14.8695 9.93769 14.6397 10.0564L13.0313 11.0356L11.9399 11.6588L10.3603 12.638C10.1593 12.7567 9.90078 12.7567 9.67102 12.638L8.43603 11.8665C8.23499 11.7478 8.09138 11.5104 8.09138 11.2433V9.75964C8.09138 9.52226 8.20627 9.28487 8.43603 9.1365L9.67102 8.39466C9.87206 8.27596 10.1305 8.27596 10.3603 8.39466L11.5953 9.16617C11.7963 9.28487 11.9399 9.52226 11.9399 9.78932V10.7685L13.0313 10.1157V9.10682C13.0313 8.86944 12.9164 8.63205 12.6867 8.48368L10.389 7.08902C10.188 6.97033 9.9295 6.97033 9.69974 7.08902L7.34465 8.51335C7.11488 8.63205 7 8.86944 7 9.10682V11.8961C7 12.1335 7.11488 12.3709 7.34465 12.5193L9.67102 13.9139C9.87206 14.0326 10.1305 14.0326 10.3603 13.9139L11.9399 12.9644L13.0313 12.3116L14.611 11.362C14.812 11.2433 15.0705 11.2433 15.3003 11.362L16.5352 12.1039C16.7363 12.2226 16.8799 12.4599 16.8799 12.727V14.2107C16.8799 14.4481 16.765 14.6855 16.5352 14.8338L15.329 15.5757C15.1279 15.6944 14.8695 15.6944 14.6397 15.5757L13.4047 14.8338C13.2037 14.7151 13.0601 14.4777 13.0601 14.2107V13.2611L11.9687 13.9139V14.8932C11.9687 15.1306 12.0836 15.368 12.3133 15.5163L14.6397 16.911C14.8407 17.0297 15.0992 17.0297 15.329 16.911L17.6554 15.5163C17.8564 15.3976 18 15.1602 18 14.8932V12.0742C18 11.8368 17.8851 11.5994 17.6554 11.451L15.329 10.0564Z" fill="black"/>
</svg>
