<svg width="24" height="24" viewBox="0 0 24 24" fill="none" xmlns="http://www.w3.org/2000/svg">
<path d="M8.78715 15.0979C8.85353 15.0361 8.94479 15 9.04159 15H17.8197C17.9801 15 18.0603 15.1804 17.9469 15.2861L16.2129 16.9021C16.1465 16.9639 16.0552 17 15.9584 17H7.18032C7.01992 17 6.93971 16.8196 7.0531 16.7139L8.78715 15.0979Z" fill="black"/>
<path d="M8.78715 7.09794C8.85629 7.03608 8.94756 7 9.04159 7H17.8197C17.9801 7 18.0603 7.18041 17.9469 7.28608L16.2129 8.90206C16.1465 8.96392 16.0552 9 15.9584 9H7.18032C7.01992 9 6.93971 8.81959 7.0531 8.71392L8.78715 7.09794Z" fill="black"/>
<path d="M16.2129 11.0979C16.1465 11.0361 16.0552 11 15.9584 11H7.18032C7.01992 11 6.93971 11.1804 7.0531 11.2861L8.78715 12.9021C8.85353 12.9639 8.94479 13 9.04159 13H17.8197C17.9801 13 18.0603 12.8196 17.9469 12.7139L16.2129 11.0979Z" fill="black"/>
</svg>
