<svg width="24" height="24" viewBox="0 0 24 23" fill="none" xmlns="http://www.w3.org/2000/svg">
<path d="M17.8238 6.70837H20L15.4711 10.477C13.831 11.8411 11.1719 11.8411 9.53064 10.477L5 6.70837H7.17798L10.6188 9.57118C11.1201 9.98642 11.7957 10.2192 12.4996 10.2192C13.2034 10.2192 13.879 9.98642 14.3804 9.57118L17.8238 6.70837Z" fill="black"/>
<path d="M7.16943 16.2917H5L9.54102 12.5181C11.1749 11.1606 13.8239 11.1606 15.459 12.5181L20 16.2917H17.832L14.375 13.4196C13.8756 13.0063 13.2025 12.7747 12.5013 12.7747C11.8001 12.7747 11.1271 13.0063 10.6276 13.4196L7.16943 16.2917Z" fill="black"/>
</svg>
