<svg width="40" height="40" viewBox="0 0 40 40" fill="none" xmlns="http://www.w3.org/2000/svg">
    <path fill-rule="evenodd" clip-rule="evenodd" d="M28.3433 1.49181C28.1287 1.39005 27.8722 1.47434 27.7592 1.68375C27.6462 1.89317 27.7162 2.15463 27.9185 2.27915C33.3888 5.64577 37.0322 11.6335 37.0322 18.4411C37.0322 28.9288 28.3862 37.4741 17.7438 37.4741L17.7434 37.4741C12.9411 37.4785 8.3123 35.7079 4.76815 32.5126C4.59162 32.3535 4.32186 32.3605 4.15379 32.5286C3.98573 32.6967 3.978 32.9673 4.13619 33.1448C6.05722 35.3001 8.42111 37.026 11.0701 38.2079C13.719 39.3897 16.5923 40.0005 19.4987 39.9998C30.7964 39.9998 39.9999 30.9222 39.9999 19.7546C39.9999 11.7126 35.2285 4.75651 28.3433 1.49181Z" fill="url(#paint0_radial_3964_48147)"/>
    <path fill-rule="evenodd" clip-rule="evenodd" d="M27.7593 1.68375C27.8722 1.47434 28.1287 1.39005 28.3433 1.49181C35.2286 4.75651 40 11.7126 40 19.7546C40 30.9222 30.7965 39.9998 19.4987 39.9998C16.5923 40.0005 13.7191 39.3897 11.0701 38.2079C11.0689 38.2073 11.0676 38.2068 11.0664 38.2062C17.7119 40.4873 25.265 39.2843 30.7655 34.3756C36.6822 29.0953 38.6284 20.9527 36.4535 13.6498C36.4361 13.5911 36.4076 13.5384 36.3711 13.4935C35.0861 8.78997 32.0144 4.79986 27.9186 2.27915C27.7163 2.15463 27.6463 1.89317 27.7593 1.68375Z" fill="url(#paint1_linear_3964_48147)"/>
    <path fill-rule="evenodd" clip-rule="evenodd" d="M10.3369 34.3382C10.5208 34.4263 10.7407 34.3533 10.8375 34.1719C10.9343 33.9905 10.8744 33.764 10.7009 33.6561C6.01211 30.7397 2.99021 25.5732 2.99021 19.6759C2.99021 10.5906 10.4014 3.57765 19.5235 3.57765C23.6398 3.57383 27.262 4.92249 30.6139 7.72416C30.7652 7.86202 31.0285 7.75772 31.1726 7.61209C31.3166 7.46646 31.3233 7.23208 31.1877 7.07833C29.5411 5.21121 27.4096 3.5929 25.1391 2.56908C22.8686 1.54527 20.5102 0.999484 18.019 1.00011C8.3352 1.00011 -0.000413538 8.39653 -0.000414436 18.7067C-0.000415044 25.6733 4.3571 31.7064 10.3369 34.3382Z" fill="url(#paint2_linear_3964_48147)"/>
    <path fill-rule="evenodd" clip-rule="evenodd" d="M10.8379 34.1728C10.7411 34.3542 10.5212 34.4272 10.3373 34.339C4.35751 31.7073 -4.04804e-07 25.6742 2.02414e-07 18.7075C1.10224e-06 8.3974 8.33561 1.00098 18.0194 1.00098C20.4812 1.00035 22.8132 1.53331 25.059 2.53386C19.9863 1.02708 14.3042 1.80215 9.54225 5.42423C4.24697 9.45196 2.04104 16.1514 3.19402 22.3016C3.94458 27.088 6.72293 31.1824 10.7013 33.657C10.8748 33.7649 10.9348 33.9913 10.8379 34.1728Z" fill="url(#paint3_linear_3964_48147)"/>
    <path d="M16.832 12.6182L32.8453 12.6182V15.7625H27.6921V27.2916C27.6921 28.0627 27.572 28.5807 27.3318 28.8457C27.0915 29.1108 26.551 29.2433 25.7103 29.2433H21.7466V15.7625H16.832V12.6182Z" fill="url(#paint4_linear_3964_48147)"/>
    <path fill-rule="evenodd" clip-rule="evenodd" d="M14.8248 12.6182H12.5993V24.5449C12.5993 25.0268 12.4912 25.4123 12.275 25.7014C12.0829 25.9905 11.7225 26.1351 11.194 26.1351C10.8577 26.1351 9.49161 26.0026 8.9391 25.8821C8.41061 25.7616 8.01424 25.6532 7.75 25.5568V28.9903C8.47067 29.0626 9.10726 29.1228 9.65977 29.171C10.2123 29.2192 11.6745 29.3156 12.203 29.3156C12.7555 29.3397 13.3801 29.3397 14.0767 29.3156C14.7493 29.2674 15.3859 29.159 15.9865 28.9903C16.6111 28.8216 17.1395 28.5325 17.5719 28.1229C18.0284 27.7133 18.3166 27.1471 18.4367 26.4242C18.5088 26.111 18.5448 25.7135 18.5448 25.2316V23.8582V17.5557H14.8248V12.6182Z" fill="url(#paint5_linear_3964_48147)"/>
    <path d="M16.832 11.5762L32.8453 11.5762V14.7205H27.6921V26.2496C27.6921 27.0207 27.572 27.5387 27.3318 27.8037C27.0915 28.0688 26.551 28.2013 25.7103 28.2013H21.7466V14.7205H16.832V11.5762Z" fill="url(#paint6_linear_3964_48147)"/>
    <path fill-rule="evenodd" clip-rule="evenodd" d="M14.8735 11.5762H12.5993V23.5029C12.5993 23.9848 12.4912 24.3703 12.275 24.6594C12.0829 24.9486 11.7225 25.0931 11.194 25.0931C10.8577 25.0931 9.49161 24.9606 8.9391 24.8401C8.41061 24.7197 8.01424 24.6112 7.75 24.5149V27.9483C8.47067 28.0206 9.10726 28.0808 9.65977 28.129C10.2123 28.1772 11.6745 28.2736 12.203 28.2736C12.7555 28.2977 13.3801 28.2977 14.0767 28.2736C14.7493 28.2254 15.3859 28.117 15.9865 27.9483C16.6111 27.7796 17.1395 27.4905 17.5719 27.0809C18.0284 26.6713 18.3166 26.1051 18.4367 25.3823C18.5088 25.069 18.5448 24.6715 18.5448 24.1896V22.8162V17.5302H14.8735V11.5762Z" fill="url(#paint7_linear_3964_48147)"/>
    <defs>
        <radialGradient id="paint0_radial_3964_48147" cx="0" cy="0" r="1" gradientUnits="userSpaceOnUse" gradientTransform="translate(29.497 25.8793) rotate(-110.473) scale(28.1113 27.8572)">
            <stop stop-color="#004B50"/>
            <stop offset="1" stop-color="#00A76F"/>
        </radialGradient>
        <linearGradient id="paint1_linear_3964_48147" x1="41.8994" y1="1.44873" x2="41.8994" y2="39.9997" gradientUnits="userSpaceOnUse">
            <stop stop-color="#5BE49B"/>
            <stop offset="1" stop-color="#00A76F"/>
        </linearGradient>
        <linearGradient id="paint2_linear_3964_48147" x1="-1.2295" y1="13.8883" x2="35.5743" y2="18.4692" gradientUnits="userSpaceOnUse">
            <stop stop-color="#004B50"/>
            <stop offset="1" stop-color="#00A76F"/>
        </linearGradient>
        <linearGradient id="paint3_linear_3964_48147" x1="0" y1="1.00098" x2="-1.30947e-09" y2="39.1037" gradientUnits="userSpaceOnUse">
            <stop stop-color="#5BE49B"/>
            <stop offset="1" stop-color="#00A76F"/>
        </linearGradient>
        <linearGradient id="paint4_linear_3964_48147" x1="33.4744" y1="22.8234" x2="14.6527" y2="20.4162" gradientUnits="userSpaceOnUse">
            <stop stop-color="#004B50"/>
            <stop offset="1" stop-color="#00A76F"/>
        </linearGradient>
        <linearGradient id="paint5_linear_3964_48147" x1="18.9689" y1="22.8788" x2="6.16745" y2="21.7811" gradientUnits="userSpaceOnUse">
            <stop stop-color="#004B50"/>
            <stop offset="1" stop-color="#00A76F"/>
        </linearGradient>
        <linearGradient id="paint6_linear_3964_48147" x1="20.7298" y1="11.5762" x2="20.7298" y2="28.2013" gradientUnits="userSpaceOnUse">
            <stop stop-color="#5BE49B"/>
            <stop offset="1" stop-color="#00A76F"/>
        </linearGradient>
        <linearGradient id="paint7_linear_3964_48147" x1="10.992" y1="11.5762" x2="10.992" y2="28.2916" gradientUnits="userSpaceOnUse">
            <stop stop-color="#5BE49B"/>
            <stop offset="1" stop-color="#00A76F"/>
        </linearGradient>
    </defs>
</svg>
